<svg width="24" height="24" viewBox="0 0 24 24" fill="none" xmlns="http://www.w3.org/2000/svg">
<path d="M18.3945 14.7959C18.7893 14.6704 19.2115 14.8894 19.3369 15.2842C19.4269 15.5672 19.5491 15.9116 19.6895 16.3066C19.7127 16.372 19.7366 16.4388 19.7607 16.5068C19.9282 16.9793 20.112 17.5051 20.2764 18.0342C20.4403 18.5618 20.59 19.1073 20.6846 19.6201C20.7772 20.1226 20.8274 20.647 20.7588 21.1123C20.6983 21.5221 20.317 21.8056 19.9072 21.7451C19.4976 21.6846 19.215 21.3032 19.2754 20.8936C19.3086 20.6685 19.2902 20.3333 19.209 19.8926C19.1998 19.8428 19.1882 19.7923 19.1777 19.7412C14.4046 21.1006 9.62374 21.1019 4.85059 19.7441C4.84032 19.7943 4.82931 19.8437 4.82031 19.8926C4.73909 20.3334 4.72069 20.6685 4.75391 20.8936C4.81423 21.3032 4.53079 21.6847 4.12109 21.7451C3.71152 21.8053 3.331 21.5219 3.27051 21.1123C3.20186 20.647 3.25212 20.1226 3.34473 19.6201C3.43926 19.1073 3.58802 18.5618 3.75195 18.0342C3.91636 17.505 4.10102 16.9793 4.26855 16.5068C4.2927 16.4387 4.31662 16.372 4.33984 16.3066C4.48022 15.9115 4.60241 15.5672 4.69238 15.2842C4.81781 14.8895 5.23912 14.6706 5.63379 14.7959C6.02855 14.9214 6.24753 15.3435 6.12207 15.7383C6.02374 16.0477 5.89138 16.4202 5.75195 16.8125C5.72895 16.8772 5.70491 16.9422 5.68164 17.0078C5.53519 17.4209 5.38406 17.8583 5.24414 18.2959C9.75999 19.5837 14.2673 19.5831 18.7832 18.2939C18.6435 17.8571 18.4929 17.4202 18.3467 17.0078C18.3235 16.9423 18.3003 16.8771 18.2773 16.8125C18.1379 16.4202 18.0056 16.0477 17.9072 15.7383C17.7818 15.3436 17.9999 14.9214 18.3945 14.7959ZM18.5127 2.69629C18.6795 2.3172 19.1219 2.14473 19.501 2.31152C19.8799 2.47826 20.0521 2.9208 19.8857 3.2998C19.6215 3.90042 19.3567 4.74433 19.1582 5.57324C19.0527 6.01381 18.972 6.42992 18.918 6.78711C19.0073 6.7592 19.0971 6.73211 19.1865 6.70313C19.294 6.66803 19.398 6.62963 19.5186 6.58496C19.589 6.55884 19.665 6.52995 19.751 6.49902C19.9633 6.42267 20.2131 6.33891 20.4707 6.28516C20.9718 6.18057 21.7013 6.15362 22.2559 6.74707C22.3993 6.90053 22.4666 7.08255 22.499 7.17969C22.5386 7.29823 22.5679 7.42715 22.5908 7.55176C22.637 7.80273 22.6706 8.10608 22.6943 8.4209C22.7422 9.05458 22.7588 9.80558 22.7588 10.4316V10.4609C22.7588 10.7454 22.7584 11.0067 22.7383 11.2275C22.7162 11.4701 22.666 11.7201 22.5342 11.9678C22.3379 12.3361 22.0422 12.5586 21.7803 12.7021C21.5778 12.8131 21.3494 12.8995 21.1885 12.96C21.1568 12.9719 21.1273 12.9823 21.1016 12.9922C19.7934 13.4974 18.4825 13.8951 17.1689 14.1826C15.4509 14.5586 13.7304 14.747 12.0088 14.7471C10.2874 14.7471 8.56715 14.5584 6.84961 14.1826C5.53554 13.8951 4.22396 13.4977 2.91504 12.9922C2.87828 12.978 2.84223 12.9638 2.80664 12.9502C2.33203 12.7684 1.95928 12.6259 1.65332 12.2314L1.6543 12.2324C1.37857 11.878 1.28829 11.4996 1.26074 11.1807C1.24374 10.9836 1.25118 10.7377 1.25586 10.5713C1.25748 10.5136 1.25879 10.465 1.25879 10.4316V10.4189C1.25879 9.81119 1.25877 9.07936 1.29785 8.45703C1.31747 8.14466 1.34796 7.83623 1.39941 7.57324C1.42515 7.44177 1.45906 7.30432 1.50684 7.17578C1.55117 7.05658 1.62626 6.89105 1.76074 6.74707C2.32681 6.14122 3.09732 6.19496 3.58594 6.29883C3.84753 6.35444 4.09863 6.43843 4.30762 6.51367C4.39894 6.54655 4.47659 6.57574 4.5459 6.60156C4.65312 6.64151 4.74112 6.67359 4.8291 6.70215C4.9203 6.73173 5.01233 6.75963 5.10352 6.78809C5.04946 6.43067 4.96887 6.01422 4.86328 5.57324C4.6648 4.74433 4.40097 3.90042 4.13672 3.2998C3.9702 2.92075 4.14247 2.47828 4.52148 2.31152C4.90055 2.14497 5.34301 2.31726 5.50977 2.69629C5.82241 3.40693 6.11145 4.34323 6.32227 5.22363C6.49156 5.93065 6.62019 6.65077 6.66309 7.2207C10.2296 8.08279 13.7909 8.08241 17.3574 7.21973C17.4004 6.64993 17.53 5.93029 17.6992 5.22363C17.91 4.34315 18.2 3.40698 18.5127 2.69629ZM21.0977 7.73535C21.0464 7.72144 20.9528 7.7173 20.7773 7.75391C20.6254 7.78563 20.4552 7.84049 20.2588 7.91113C20.2036 7.93096 20.1422 7.95287 20.0781 7.97656C19.9386 8.02818 19.7852 8.08521 19.6514 8.12891H19.6504C14.5597 9.78027 9.45688 9.78027 4.36621 8.12891C4.25087 8.09147 4.10865 8.03891 3.97754 7.99023C3.91442 7.9668 3.8538 7.94425 3.7998 7.9248C3.60947 7.85627 3.43467 7.79971 3.27441 7.76562C3.05317 7.7186 2.94681 7.7312 2.89746 7.74805C2.88969 7.7762 2.88046 7.81348 2.87109 7.86133C2.83796 8.03069 2.81291 8.26448 2.79492 8.55078C2.75909 9.12141 2.75879 9.80912 2.75879 10.4316C2.75879 10.5165 2.75531 10.613 2.75293 10.6943C2.75192 10.7288 2.75158 10.761 2.75098 10.7881C2.74861 10.8945 2.74856 10.9784 2.75488 11.0518C2.76676 11.1891 2.79699 11.2587 2.83887 11.3125C2.85446 11.3326 2.8623 11.3389 2.8623 11.3389C2.86449 11.3407 2.87594 11.3501 2.91016 11.3682C3.00078 11.416 3.14138 11.4716 3.45508 11.5928C4.39104 11.9543 5.32579 12.2565 6.25879 12.499V11.8086C6.25853 11.3945 6.59367 11.059 7.00781 11.0586C7.42199 11.0583 7.75842 11.3934 7.75879 11.8076L7.75977 12.8379C8.92705 13.0622 10.0935 13.1938 11.2588 13.2334V12.3555C11.2588 11.9413 11.5946 11.6055 12.0088 11.6055C12.4228 11.6057 12.7588 11.9414 12.7588 12.3555V13.2334C13.9244 13.1939 15.0912 13.0623 16.2588 12.8379V11.8086C16.2588 11.3944 16.5946 11.0586 17.0088 11.0586C17.4228 11.0588 17.7588 11.3945 17.7588 11.8086V12.499C18.6915 12.2564 19.6258 11.9542 20.5615 11.5928C20.6115 11.5735 20.6573 11.5569 20.6992 11.541C20.8535 11.4825 20.9589 11.4419 21.0596 11.3867C21.1674 11.3276 21.1971 11.2867 21.21 11.2627C21.2143 11.2545 21.2324 11.2206 21.2441 11.0918C21.2573 10.9471 21.2588 10.7543 21.2588 10.4316C21.2588 9.82497 21.2421 9.11553 21.1982 8.53418C21.1761 8.24139 21.1484 7.99801 21.1162 7.82324C21.1099 7.78885 21.1032 7.75969 21.0977 7.73535Z" fill="#234C14"/>
</svg>
