<svg width="24" height="24" viewBox="0 0 24 24" fill="none" xmlns="http://www.w3.org/2000/svg">
<path d="M14.7275 1.25C15.9826 1.25013 17.1133 2.19736 17.1133 3.5C17.1133 4.21395 16.7735 4.8216 16.2598 5.22461C17.7111 7.95456 18.75 10.4485 18.75 13.7773V18C18.75 19.6304 18.5876 20.9608 17.6787 21.7939C17.2237 22.211 16.6466 22.4428 15.9893 22.5752C15.337 22.7065 14.5539 22.75 13.6367 22.75L10.3633 22.75C9.44615 22.75 8.66298 22.7065 8.01074 22.5752C7.35343 22.4428 6.77635 22.211 6.32129 21.7939C5.41245 20.9608 5.25 19.6304 5.25 18L5.25 13.7773C5.25 10.4475 6.26502 7.94606 7.71777 5.20703C7.2163 4.80405 6.88672 4.20378 6.88672 3.5C6.88672 2.19736 8.01738 1.25013 9.27246 1.25L14.7275 1.25ZM10.1445 13.2715C9.93494 13.0425 9.55438 12.9224 9.14551 13.0127C8.63179 13.1262 7.95998 13.1871 7.3291 13.1514C7.14281 13.1408 6.95354 13.1198 6.76758 13.0889C6.75679 13.3141 6.75 13.5436 6.75 13.7773V18C6.75 19.6789 6.96453 20.3489 7.33496 20.6885C7.51951 20.8575 7.80769 21.005 8.30664 21.1055C8.81089 21.207 9.47565 21.25 10.3633 21.25L13.6367 21.25C14.5243 21.25 15.1891 21.207 15.6934 21.1055C16.1923 21.005 16.4805 20.8575 16.665 20.6885C17.0355 20.3489 17.25 19.6789 17.25 18V16.5664C17.215 16.5516 17.1785 16.5368 17.1416 16.5195C16.6962 16.3116 16.1219 15.9269 15.458 15.2217C15.214 14.9625 14.8833 14.8451 14.5869 14.8926L13.543 15.0596C12.5916 15.2122 11.6176 14.8835 10.9687 14.1738L10.1445 13.2715ZM9.27246 2.75C8.72033 2.75013 8.38672 3.14594 8.38672 3.5C8.38672 3.77036 8.58105 4.06517 8.91895 4.18945C8.94342 4.19596 8.96813 4.20377 8.99219 4.21289C9.07778 4.23665 9.1716 4.24998 9.27246 4.25C9.68667 4.25 10.0225 4.58579 10.0225 5C10.0225 5.41421 9.68667 5.75 9.27246 5.75C9.22507 5.74999 9.17784 5.74877 9.13086 5.74609C8.0437 7.77933 7.25298 9.56018 6.92187 11.5938C7.06555 11.6228 7.23164 11.644 7.41406 11.6543C7.90927 11.6823 8.44377 11.6324 8.82227 11.5488C9.65748 11.3643 10.6181 11.5665 11.252 12.2598L12.0762 13.1621C12.376 13.4899 12.8407 13.6537 13.3057 13.5791L14.3486 13.4111C15.2004 13.2745 16.0123 13.6224 16.5498 14.1934C16.8144 14.4744 17.0499 14.6802 17.25 14.832V13.7773C17.25 10.7436 16.3031 8.47918 14.8389 5.74707C14.8019 5.74873 14.7648 5.75 14.7275 5.75C14.3133 5.75 13.9775 5.41421 13.9775 5C13.9775 4.58579 14.3133 4.25 14.7275 4.25C14.8227 4.24998 14.9116 4.23809 14.9932 4.2168C15.017 4.20825 15.0413 4.20133 15.0654 4.19531C15.413 4.07449 15.6133 3.77452 15.6133 3.5C15.6133 3.14594 15.2797 2.75013 14.7275 2.75L9.27246 2.75Z" fill="#234C14"/>
</svg>
