<svg width="24" height="24" viewBox="0 0 24 24" fill="none" xmlns="http://www.w3.org/2000/svg">
<path d="M12 1.25C12.6763 1.25016 13.1625 1.73342 13.4199 2.02539C13.5689 2.19438 13.702 2.37228 13.8086 2.5166C13.8227 2.53571 13.8358 2.55481 13.8486 2.57227C13.9427 2.69978 14.0058 2.78449 14.0586 2.8457C14.2056 3.01595 14.2964 3.09731 14.377 3.14551C14.4408 3.18367 14.5295 3.22024 14.7012 3.22266C14.877 3.22509 15.0676 3.16843 15.4141 3.06641C15.4268 3.06265 15.4399 3.05857 15.4531 3.05469C15.7646 2.96303 16.2393 2.82474 16.7422 2.90039C16.9607 2.93327 17.2475 3.01183 17.4697 3.23535C17.7329 3.50021 17.7758 3.83 17.7373 4.0791C17.7041 4.29437 17.6102 4.47395 17.5488 4.58008C17.4905 4.68077 17.4222 4.77912 17.377 4.84473C17.3715 4.85262 17.3661 4.86031 17.3613 4.86719L16.4287 6.22559C16.4096 6.25335 16.39 6.28099 16.3711 6.30859C16.246 6.49134 16.1225 6.66875 15.9873 6.83398C16.3485 7.05931 16.6204 7.32219 16.9629 7.65527L16.9902 7.68164C18.8562 9.49611 20.9949 12.5753 21.6826 16.7129C21.9733 18.4621 21.3012 19.9973 20.1465 21.0693C19.0033 22.1305 17.3827 22.7499 15.6924 22.75H8.30859C6.61801 22.75 4.9968 22.1307 3.85352 21.0693C2.69877 19.9973 2.0268 18.4621 2.31738 16.7129C3.00514 12.5751 5.14473 9.49608 7.01074 7.68164C7.0197 7.67293 7.02825 7.66389 7.03711 7.65527C7.37923 7.32253 7.65119 7.06013 8.01172 6.83496C7.87631 6.66956 7.75312 6.49155 7.62793 6.30859C7.60911 6.28109 7.59029 6.25325 7.57129 6.22559L6.6377 4.86719C6.633 4.86035 6.62845 4.85256 6.62305 4.84473C6.57783 4.77919 6.50951 4.68083 6.45117 4.58008C6.38975 4.47395 6.29595 4.29437 6.2627 4.0791C6.22422 3.82999 6.26614 3.50024 6.5293 3.23535C6.75143 3.01178 7.03829 2.9333 7.25684 2.90039C7.75961 2.82474 8.23443 2.96303 8.5459 3.05469C8.559 3.05854 8.57229 3.06267 8.58496 3.06641C8.93139 3.16843 9.12205 3.22509 9.29785 3.22266C9.46989 3.22027 9.55914 3.18373 9.62305 3.14551C9.70353 3.0973 9.79375 3.01561 9.94043 2.8457C9.99324 2.78451 10.0564 2.6997 10.1504 2.57227C10.1633 2.55481 10.1763 2.53571 10.1904 2.5166C10.297 2.37225 10.4301 2.19444 10.5791 2.02539C10.8365 1.73339 11.3234 1.25 12 1.25ZM10.9229 7.75C9.90784 7.75 9.57214 7.75972 9.16211 7.92676C8.73932 8.099 8.5716 8.25516 8.05566 8.75684C6.36935 10.3966 4.42182 13.1986 3.79688 16.958C3.59932 18.1466 4.03864 19.1941 4.87402 19.9697C5.72108 20.7561 6.97013 21.25 8.30859 21.25H15.6924C17.0306 21.2499 18.279 20.756 19.126 19.9697C19.9615 19.1941 20.4007 18.1466 20.2031 16.958C19.5782 13.1984 17.6307 10.3966 15.9443 8.75684C15.4283 8.25512 15.2607 8.09901 14.8379 7.92676C14.428 7.75983 14.0928 7.75 13.0781 7.75H10.9229ZM12.0898 13.6729C12.1074 13.6731 12.1255 13.6736 12.1436 13.6738C12.309 13.6761 12.4964 13.6785 12.6748 13.6943C13.1085 13.7328 13.5714 13.8554 14.002 14.2617C14.4766 14.7096 14.6929 15.4535 14.5762 16.1338C14.447 16.8859 13.9163 17.5662 12.9482 17.834C12.8294 17.8668 12.7105 17.8946 12.5918 17.916V17.9922C12.5918 18.4064 12.256 18.7422 11.8418 18.7422C11.4276 18.7422 11.0918 18.4064 11.0918 17.9922V17.8965C10.91 17.8574 10.7354 17.8045 10.5703 17.7402C9.91411 17.4849 9.25739 16.9675 9.11914 16.1807C9.04766 15.7729 9.31979 15.3843 9.72754 15.3125C10.1355 15.2408 10.525 15.5139 10.5967 15.9219C10.6075 15.9815 10.7077 16.1846 11.1143 16.3428C11.3233 16.4241 11.5803 16.4743 11.8545 16.4785L11.8672 15.167C11.9078 15.1681 11.9472 15.1692 11.9854 15.1699L11.9414 13.6689C11.9907 13.6701 12.04 13.6721 12.0898 13.6729ZM12.0234 16.4756C12.1936 16.466 12.3704 16.438 12.5488 16.3887C12.7726 16.3268 12.896 16.2352 12.9658 16.1582C13.0367 16.0799 13.0794 15.986 13.0977 15.8799C13.1404 15.6306 13.037 15.4132 12.9727 15.3525C12.8643 15.2503 12.7632 15.2081 12.542 15.1885C12.4227 15.1779 12.293 15.1764 12.1143 15.1738C12.0995 15.1736 12.0839 15.1731 12.0684 15.1729C12.0415 15.1725 12.0137 15.1704 11.9854 15.1699L12.0234 16.4756ZM11.8984 12.1963L11.8955 12.5C11.8778 12.5013 11.8599 12.5029 11.8418 12.5029C11.8354 12.5029 11.8286 12.5021 11.8223 12.502C11.6556 12.5114 11.4718 12.5515 11.2725 12.6328C10.8331 12.812 10.7188 13.1269 10.7266 13.2539C10.7296 13.3031 10.748 13.3616 10.8301 13.4287C10.9234 13.505 11.1283 13.6118 11.5254 13.6484C11.6481 13.6598 11.7657 13.6635 11.8828 13.667L11.8672 15.167C11.7215 15.1631 11.5604 15.1575 11.3877 15.1416C10.7861 15.0861 10.2679 14.9072 9.87988 14.5898C9.48076 14.2634 9.25865 13.8201 9.22949 13.3457C9.17298 12.4253 9.82456 11.6037 10.7061 11.2441C10.8353 11.1914 10.9641 11.1481 11.0918 11.1133V10.9922C11.0918 10.578 11.4276 10.2422 11.8418 10.2422L11.8984 12.1963ZM11.9072 12.5L11.9414 13.6689C11.9219 13.6685 11.9024 13.6676 11.8828 13.667L11.8955 12.5H11.9072ZM11.9189 10.2461C12.2969 10.2847 12.5918 10.604 12.5918 10.9922V11.0898C13.4667 11.3131 14.1402 11.9454 14.3506 12.7217C14.4588 13.1213 14.2228 13.5331 13.8232 13.6416C13.4235 13.7499 13.0117 13.5139 12.9033 13.1143C12.8388 12.8759 12.4845 12.503 11.9072 12.5L11.8984 12.1963L11.9189 10.2461ZM12 2.75586C11.9706 2.77109 11.8745 2.82547 11.7051 3.01758C11.6027 3.13369 11.5027 3.26568 11.3975 3.4082C11.3852 3.42486 11.3724 3.44226 11.3594 3.45996C11.2722 3.57844 11.17 3.71645 11.0762 3.8252C10.9041 4.02452 10.6864 4.25789 10.3926 4.43359C10.0821 4.61921 9.73005 4.71598 9.31836 4.72168C8.90683 4.72733 8.50194 4.60764 8.22168 4.52344L8.80762 5.37598C9.23815 6.00263 9.31451 6.07286 9.47949 6.1377C9.58421 6.17884 9.73527 6.21313 10.0225 6.23145C10.315 6.25008 10.6921 6.25 11.2412 6.25H12.7578C13.307 6.25 13.684 6.25008 13.9766 6.23145C14.2638 6.21314 14.4148 6.17882 14.5195 6.1377C14.6846 6.07284 14.7617 6.0029 15.1924 5.37598L15.7773 4.52344C15.497 4.60766 15.0922 4.72738 14.6807 4.72168C14.2689 4.71597 13.917 4.61928 13.6064 4.43359C13.3126 4.25789 13.0949 4.02452 12.9229 3.8252C12.829 3.71644 12.7268 3.57841 12.6396 3.45996C12.6266 3.44227 12.6138 3.42484 12.6016 3.4082C12.4964 3.26576 12.3972 3.13363 12.2949 3.01758C12.1259 2.82588 12.0297 2.7713 12 2.75586Z" fill="#234C14"/>
</svg>
