<svg width="24" height="24" viewBox="0 0 24 24" fill="none" xmlns="http://www.w3.org/2000/svg">
<path fill-rule="evenodd" clip-rule="evenodd" d="M8.13677 22.5303C7.84388 22.2374 7.84388 21.7626 8.13677 21.4697C8.38265 21.2238 8.52359 21.079 8.61104 20.7212C8.71294 20.3043 8.74325 19.559 8.50168 18.1246C8.43289 17.7161 8.70825 17.3292 9.11672 17.2604C9.52518 17.1916 9.91207 17.467 9.98085 17.8754C10.2331 19.3731 10.2433 20.3608 10.0681 21.0773C9.87978 21.848 9.4906 22.2372 9.20303 22.5247L9.19743 22.5303C8.90454 22.8232 8.42966 22.8232 8.13677 22.5303ZM13.9721 16.7019C12.8797 16.8446 11.1917 16.7378 8.4852 16.0612C5.82916 15.3971 4.43387 15.2592 3.65137 15.3302C3.27854 15.364 3.07266 15.4434 2.94184 15.5173C2.80236 15.5961 2.70097 15.6926 2.53033 15.8632C2.23744 16.1561 1.76256 16.1561 1.46967 15.8632C1.17678 15.5703 1.17678 15.0955 1.46967 14.8026L1.48432 14.7879C1.6462 14.6259 1.87444 14.3975 2.20415 14.2112C2.55261 14.0144 2.97188 13.8857 3.51585 13.8363C4.4017 13.756 5.68094 13.8823 7.66387 14.3247C7.23564 12.2982 7.17809 10.9509 7.29842 10.0284C7.37067 9.47444 7.5085 9.06187 7.67765 8.74564C7.84986 8.42368 8.0371 8.23644 8.13622 8.13732L8.13732 8.13622C8.23644 8.0371 8.42368 7.84986 8.74564 7.67765C9.06187 7.5085 9.47444 7.37067 10.0284 7.29842C11.1208 7.15593 12.809 7.26288 15.5155 7.93949C18.1715 8.6035 19.5666 8.74127 20.3488 8.67016C20.7215 8.63628 20.9273 8.55683 21.0581 8.48291C21.1976 8.40407 21.2989 8.30753 21.4697 8.13677C21.7626 7.84388 22.2374 7.84388 22.5303 8.13677C22.8232 8.42966 22.8232 8.90454 22.5303 9.19743C22.5254 9.20234 22.5204 9.20732 22.5154 9.21237C22.3537 9.37426 22.1255 9.60258 21.7961 9.78876C21.4478 9.98567 21.0286 10.1145 20.4846 10.164C19.5988 10.2445 18.3197 10.1183 16.3368 9.67594C16.765 11.7025 16.8224 13.0497 16.7019 13.9721C16.6295 14.526 16.4916 14.9385 16.3223 15.2547C16.1502 15.5763 15.9631 15.7634 15.864 15.8624L15.8624 15.864C15.7634 15.9631 15.5763 16.1502 15.2547 16.3223C14.9385 16.4916 14.526 16.6295 13.9721 16.7019ZM14.7127 9.28795C12.3582 8.73176 10.9995 8.68446 10.2224 8.78582C9.81803 8.83856 9.58479 8.9299 9.45312 9.00033C9.32778 9.06737 9.26512 9.12974 9.19743 9.19743C9.12974 9.26512 9.06737 9.32778 9.00033 9.45312C8.9299 9.58479 8.83856 9.81803 8.78582 10.2224C8.68446 10.9995 8.73176 12.3582 9.28795 14.7127C11.6424 15.2689 13.0009 15.316 13.7778 15.2145C14.182 15.1617 14.4152 15.0703 14.5468 14.9999C14.6721 14.9328 14.7347 14.8704 14.8026 14.8026C14.8704 14.7347 14.9328 14.6721 14.9999 14.5468C15.0703 14.4152 15.1617 14.182 15.2145 13.7778C15.316 13.0009 15.2689 11.6424 14.7127 9.28795ZM14.8838 6.73958C14.4753 6.80838 14.0884 6.53303 14.0196 6.12457C13.7674 4.62715 13.7571 3.63946 13.9321 2.92293C14.1204 2.15183 14.5096 1.76259 14.7974 1.47484L14.8026 1.46967C15.0955 1.17678 15.5703 1.17678 15.8632 1.46967C16.1561 1.76256 16.1561 2.23744 15.8632 2.53033C15.6176 2.77601 15.4766 2.92088 15.3893 3.27874C15.2874 3.6958 15.2572 4.44114 15.4988 5.87543C15.5676 6.2839 15.2922 6.67079 14.8838 6.73958Z" fill="#234C14"/>
</svg>
