<svg width="24" height="24" viewBox="0 0 24 24" fill="none" xmlns="http://www.w3.org/2000/svg">
<path d="M21.4697 1.46973C21.7626 1.17686 22.2374 1.17684 22.5303 1.46973C22.8231 1.76261 22.8231 2.23739 22.5303 2.53027L20.9707 4.08887C21.19 4.48961 21.3389 4.95043 21.4434 5.40527C21.6128 6.14302 21.6952 6.9869 21.7295 7.81445C21.7982 9.47201 21.6752 11.165 21.5957 12.0303C21.5454 12.5779 21.3213 13.0835 20.9717 13.4902C18.3968 16.4861 15.7279 19.2138 12.8135 21.8232C11.4664 23.0293 9.45635 23.0412 8.05469 21.9561C5.76298 20.1817 3.81834 18.237 2.04395 15.9453C0.958705 14.5436 0.970635 12.5336 2.17676 11.1865C4.78623 8.27213 7.51386 5.6032 10.5098 3.02832C10.9165 2.67874 11.4221 2.45462 11.9697 2.4043C12.835 2.3248 14.528 2.20177 16.1855 2.27051C17.0131 2.30484 17.857 2.38722 18.5947 2.55664C19.0492 2.66101 19.5097 2.80937 19.9102 3.02832L21.4697 1.46973ZM16.124 3.76855C14.5644 3.70385 12.9471 3.82022 12.1064 3.89746C11.8827 3.91805 11.668 4.0098 11.4873 4.16504C8.54018 6.69799 5.85924 9.32245 3.29395 12.1875C2.59449 12.9691 2.56567 14.1699 3.22949 15.0273C4.92631 17.2189 6.78114 19.0737 8.97266 20.7705C9.83007 21.4343 11.0309 21.4055 11.8125 20.7061C14.6775 18.1408 17.3011 15.4597 19.834 12.5127C19.9893 12.3319 20.0819 12.1173 20.1025 11.8936C20.1798 11.0529 20.2961 9.43559 20.2314 7.87598C20.199 7.0952 20.122 6.35343 19.9814 5.74121C19.9367 5.54618 19.8856 5.37486 19.834 5.22559L18.5303 6.53027C18.2374 6.82316 17.7626 6.82314 17.4697 6.53027C17.1768 6.23738 17.1768 5.76262 17.4697 5.46973L18.7734 4.16504C18.6244 4.11356 18.4533 4.06324 18.2588 4.01855C17.6466 3.87798 16.9048 3.80096 16.124 3.76855ZM6.96973 13.9697C7.26262 13.6769 7.73739 13.6768 8.03027 13.9697L10.0303 15.9697C10.3231 16.2626 10.3231 16.7374 10.0303 17.0303C9.73739 17.3232 9.26262 17.3231 8.96973 17.0303L6.96973 15.0303C6.67683 14.7374 6.67683 14.2626 6.96973 13.9697Z" fill="#234C14"/>
</svg>
