<svg width="24" height="24" viewBox="0 0 24 24" fill="none" xmlns="http://www.w3.org/2000/svg">
<path d="M12.5 1.75C12.9142 1.75 13.25 2.08579 13.25 2.5V3.8291C14.5327 3.99351 15.6989 4.40763 16.623 5.01074C17.8331 5.80049 18.7079 6.97859 18.708 8.38867C18.708 8.80289 18.3722 9.13867 17.958 9.13867C17.5439 9.1385 17.208 8.80278 17.208 8.38867C17.2079 7.65128 16.7497 6.88517 15.8037 6.26758C14.8641 5.6543 13.5211 5.25 12 5.25C10.4789 5.25 9.13592 5.6543 8.19629 6.26758C7.25033 6.88517 6.79208 7.65128 6.79199 8.38867C6.79199 8.83068 6.87514 9.18066 7.02539 9.46289C7.17373 9.74142 7.40889 9.99601 7.7793 10.2168C8.54964 10.6758 9.87227 10.9727 12 10.9727C14.2005 10.9727 15.9905 11.249 17.25 11.9756C17.8948 12.3476 18.4068 12.8412 18.752 13.4717C19.0952 14.0989 19.25 14.819 19.25 15.6113C19.2499 17.3285 18.3208 18.5305 16.9482 19.2598C15.9214 19.8054 14.6352 20.0957 13.25 20.2012V21.5C13.25 21.9142 12.9142 22.25 12.5 22.25C12.0858 22.25 11.75 21.9142 11.75 21.5V20.2461C9.93917 20.2077 8.27228 19.755 7.01855 19.0049C5.72266 18.2296 4.7501 17.0531 4.75 15.6113C4.75 15.1971 5.08579 14.8613 5.5 14.8613C5.91421 14.8613 6.25 15.1971 6.25 15.6113C6.2501 16.3171 6.7326 17.0857 7.78906 17.7178C8.83036 18.3407 10.3174 18.75 12 18.75C13.7372 18.75 15.2219 18.4777 16.2441 17.9346C17.224 17.4139 17.7499 16.6716 17.75 15.6113C17.75 15.0149 17.6339 14.5537 17.4355 14.1914C17.239 13.8326 16.9383 13.5273 16.5 13.2744C15.5928 12.7511 14.1326 12.4727 12 12.4727C9.7944 12.4727 8.13721 12.1756 7.01172 11.5049C6.43453 11.1609 5.99285 10.7156 5.70117 10.168C5.41154 9.62398 5.29199 9.02029 5.29199 8.38867C5.29208 6.97859 6.16695 5.80049 7.37695 5.01074C8.53628 4.25412 10.0767 3.79565 11.75 3.75391V2.5C11.75 2.08579 12.0858 1.75 12.5 1.75Z" fill="#234C14"/>
</svg>
