<svg width="24" height="24" viewBox="0 0 24 24" fill="none" xmlns="http://www.w3.org/2000/svg">
<path d="M15.542 1.25C16.476 1.24999 17.2376 1.24998 17.8574 1.31738C18.5045 1.38778 19.0663 1.53738 19.5801 1.87988C20.094 2.2225 20.4488 2.68355 20.7627 3.25391C21.0633 3.80012 21.3556 4.50309 21.7148 5.36523L22.6885 7.70215C22.6899 7.70536 22.691 7.70868 22.6924 7.71191L22.7188 7.78418C22.727 7.81162 22.7323 7.83951 22.7373 7.86719C22.745 7.91035 22.75 7.95462 22.75 8V13.4873C22.75 15.4577 22.75 17.0156 22.5801 18.2344C22.4051 19.4896 22.0368 20.4952 21.2187 21.2842C20.4044 22.0695 19.3726 22.4199 18.084 22.5869C16.8256 22.75 15.2143 22.75 13.166 22.75H10.834C8.78571 22.75 7.17445 22.75 5.91602 22.5869C4.62742 22.4199 3.59562 22.0695 2.78125 21.2842C1.96318 20.4952 1.59493 19.4896 1.41992 18.2344C1.25004 17.0156 1.24998 15.4577 1.25 13.4873L1.25 8C1.25 7.95468 1.25402 7.91029 1.26172 7.86719C1.26675 7.83938 1.2739 7.81175 1.28223 7.78418L1.30762 7.71191C1.30892 7.7088 1.30921 7.70525 1.31055 7.70215L2.28516 5.36523C2.64439 4.50302 2.93766 3.80015 3.23828 3.25391C3.55213 2.68371 3.90614 2.22244 4.41992 1.87988C4.93388 1.53724 5.49628 1.38777 6.14355 1.31738C6.76339 1.25 7.52497 1.24999 8.45898 1.25L15.542 1.25ZM2.75 13.4287C2.75 15.4707 2.75149 16.9241 2.90527 18.0273C3.05569 19.1061 3.33871 19.7388 3.82227 20.2051C4.30962 20.675 4.97655 20.9529 6.1084 21.0996C7.25919 21.2488 8.77319 21.25 10.8887 21.25H13.1113C15.2268 21.25 16.7408 21.2488 17.8916 21.0996C19.0235 20.9529 19.6904 20.675 20.1777 20.2051C20.6613 19.7388 20.9443 19.1061 21.0947 18.0273C21.2485 16.9241 21.25 15.4707 21.25 13.4287V8.75L2.75 8.75L2.75 13.4287ZM14 11.25C14.4142 11.25 14.75 11.5858 14.75 12C14.75 12.4142 14.4142 12.75 14 12.75H10C9.58579 12.75 9.25 12.4142 9.25 12C9.25 11.5858 9.58579 11.25 10 11.25H14ZM8.5 2.75C7.51441 2.75 6.83496 2.75105 6.30566 2.80859C5.79455 2.86417 5.49377 2.96672 5.25195 3.12793C5.0102 3.28914 4.7996 3.5272 4.55176 3.97754C4.2951 4.44394 4.03329 5.07088 3.6543 5.98047L3.125 7.25L11.25 7.25V2.75L8.5 2.75ZM12.75 7.25L20.875 7.25L20.3467 5.98047C19.9676 5.07066 19.7049 4.444 19.4482 3.97754C19.2004 3.52712 18.9899 3.28914 18.748 3.12793C18.5063 2.96682 18.206 2.86417 17.6953 2.80859C17.166 2.75103 16.4858 2.75 15.5 2.75L12.75 2.75V7.25Z" fill="#234C14"/>
</svg>
