<svg width="32" height="32" viewBox="0 0 32 32" fill="none" xmlns="http://www.w3.org/2000/svg">
<path d="M20.7236 1.66699C21.9689 1.66697 22.9841 1.66697 23.8105 1.75684C24.6734 1.8507 25.4232 2.05004 26.1084 2.50684C26.7933 2.9636 27.2652 3.57862 27.6836 4.33887C28.0844 5.06719 28.4751 6.00468 28.9541 7.1543L30.2578 10.2822C30.313 10.4148 30.3369 10.5526 30.334 10.6875L30.334 17.9824C30.334 20.6097 30.3339 22.6875 30.1074 24.3125C29.8741 25.9863 29.3839 27.3279 28.293 28.3799C27.2072 29.4269 25.8314 29.8935 24.1133 30.1162C22.4353 30.3337 20.2869 30.333 17.5557 30.333L14.4463 30.333C11.7151 30.333 9.56661 30.3337 7.88867 30.1162C6.17061 29.8935 4.79479 29.4268 3.70898 28.3799C2.61806 27.3279 2.1279 25.9863 1.89453 24.3125C1.66801 22.6875 1.66795 20.6097 1.66797 17.9824L1.66797 10.667C1.66797 10.6583 1.66872 10.6493 1.66895 10.6406C1.6704 10.5845 1.67434 10.5279 1.68555 10.4717C1.68922 10.4531 1.69551 10.4352 1.7002 10.417C1.70432 10.4011 1.70794 10.385 1.71289 10.3691C1.72441 10.3321 1.73736 10.2958 1.75293 10.2607L3.04785 7.1543C3.52686 6.00464 3.91752 5.06721 4.31836 4.33887C4.73689 3.57839 5.20932 2.96366 5.89453 2.50684C6.57981 2.04998 7.32935 1.85068 8.19238 1.75684C9.01882 1.66699 10.034 1.66697 11.2793 1.66699L20.7236 1.66699ZM3.66797 17.9043C3.66797 20.6273 3.6699 22.5661 3.875 24.0371C4.07556 25.4753 4.45298 26.3178 5.09766 26.9395C5.74748 27.5661 6.63627 27.9371 8.14551 28.1328C9.67995 28.3317 11.6987 28.333 14.5195 28.333L17.4824 28.333C20.3032 28.333 22.322 28.3317 23.8564 28.1328C25.3656 27.9371 26.2545 27.5661 26.9043 26.9395C27.5489 26.3178 27.9264 25.4753 28.127 24.0371C28.3321 22.5661 28.334 20.6273 28.334 17.9043L28.334 11.667L3.66797 11.667L3.66797 17.9043ZM18.668 15C19.2201 15.0002 19.668 15.4478 19.668 16C19.668 16.5522 19.2201 16.9998 18.668 17H13.334C12.7818 16.9999 12.334 16.5522 12.334 16C12.334 15.4478 12.7818 15.0001 13.334 15H18.668ZM11.335 3.66699C10.0206 3.66699 9.114 3.66837 8.4082 3.74512C7.72681 3.81923 7.3263 3.95597 7.00391 4.1709C6.68152 4.38584 6.40081 4.70319 6.07031 5.30371C5.72808 5.92565 5.37846 6.76163 4.87305 7.97461L4.16797 9.66699L15.001 9.66699L15.001 3.66699L11.335 3.66699ZM17.001 9.66699L27.834 9.66699L27.1289 7.97461C26.6235 6.76152 26.2739 5.92567 25.9316 5.30371C25.6013 4.70344 25.3212 4.38584 24.999 4.1709C24.6766 3.95595 24.2752 3.81922 23.5938 3.74512C22.888 3.6684 21.9821 3.66699 20.668 3.66699L17.001 3.66699V9.66699Z" fill="#758CA4"/>
</svg>
