<svg width="12" height="12" viewBox="0 0 12 12" fill="none" xmlns="http://www.w3.org/2000/svg">
<path d="M2.79883 7.13086C2.88765 7.13692 2.98571 7.15029 3.08496 7.19141C3.29934 7.28021 3.46979 7.45066 3.55859 7.66504C3.59971 7.76429 3.61308 7.86235 3.61914 7.95117C3.62476 8.03378 3.62501 8.13223 3.625 8.23926V9.76074C3.62501 9.86777 3.62476 9.96622 3.61914 10.0488C3.61308 10.1376 3.59971 10.2357 3.55859 10.335C3.46979 10.5493 3.29934 10.7198 3.08496 10.8086C2.98571 10.8497 2.88765 10.8631 2.79883 10.8691C2.71622 10.8748 2.61777 10.875 2.51074 10.875H2.48926C2.38223 10.875 2.28378 10.8748 2.20117 10.8691C2.11235 10.8631 2.01429 10.8497 1.91504 10.8086C1.70066 10.7198 1.53021 10.5493 1.44141 10.335C1.40029 10.2357 1.38692 10.1376 1.38086 10.0488C1.37524 9.96622 1.37499 9.86777 1.375 9.76074V8.23926C1.37499 8.13223 1.37524 8.03378 1.38086 7.95117C1.38692 7.86235 1.40029 7.76429 1.44141 7.66504C1.53021 7.45066 1.70066 7.28021 1.91504 7.19141C2.01429 7.15029 2.11235 7.13692 2.20117 7.13086C2.28378 7.12524 2.38223 7.12499 2.48926 7.125H2.51074C2.61777 7.12499 2.71622 7.12524 2.79883 7.13086ZM6.29883 5.88086C6.38765 5.88692 6.48571 5.90029 6.58496 5.94141C6.79934 6.03021 6.96979 6.20066 7.05859 6.41504C7.09971 6.51429 7.11308 6.61235 7.11914 6.70117C7.12476 6.78378 7.12501 6.88223 7.125 6.98926V9.76074C7.12501 9.86777 7.12476 9.96622 7.11914 10.0488C7.11308 10.1376 7.09971 10.2357 7.05859 10.335C6.96979 10.5493 6.79934 10.7198 6.58496 10.8086C6.48571 10.8497 6.38765 10.8631 6.29883 10.8691C6.21622 10.8748 6.11777 10.875 6.01074 10.875H5.98926C5.88223 10.875 5.78378 10.8748 5.70117 10.8691C5.61235 10.8631 5.51429 10.8497 5.41504 10.8086C5.20066 10.7198 5.03021 10.5493 4.94141 10.335C4.90029 10.2357 4.88692 10.1376 4.88086 10.0488C4.87524 9.96622 4.87499 9.86777 4.875 9.76074V6.98926C4.87499 6.88223 4.87524 6.78378 4.88086 6.70117C4.88692 6.61235 4.90029 6.51429 4.94141 6.41504C5.03021 6.20066 5.20066 6.03021 5.41504 5.94141C5.51429 5.90029 5.61235 5.88692 5.70117 5.88086C5.78378 5.87524 5.88223 5.87499 5.98926 5.875H6.01074C6.11777 5.87499 6.21622 5.87524 6.29883 5.88086ZM9.79883 4.13086C9.88765 4.13692 9.98571 4.15029 10.085 4.19141C10.2993 4.28021 10.4698 4.45066 10.5586 4.66504C10.5997 4.76429 10.6131 4.86235 10.6191 4.95117C10.6248 5.03378 10.625 5.13223 10.625 5.23926V9.76074C10.625 9.86777 10.6248 9.96622 10.6191 10.0488C10.6131 10.1376 10.5997 10.2357 10.5586 10.335C10.4698 10.5493 10.2993 10.7198 10.085 10.8086C9.98571 10.8497 9.88765 10.8631 9.79883 10.8691C9.71622 10.8748 9.61777 10.875 9.51074 10.875H9.48926C9.38223 10.875 9.28378 10.8748 9.20117 10.8691C9.11235 10.8631 9.01429 10.8497 8.91504 10.8086C8.70066 10.7198 8.53021 10.5493 8.44141 10.335C8.40029 10.2357 8.38692 10.1376 8.38086 10.0488C8.37524 9.96622 8.37499 9.86777 8.375 9.76074V5.23926C8.37499 5.13223 8.37524 5.03378 8.38086 4.95117C8.38692 4.86235 8.40029 4.76429 8.44141 4.66504C8.53021 4.45066 8.70066 4.28021 8.91504 4.19141C9.01429 4.15029 9.11235 4.13692 9.20117 4.13086C9.28378 4.12524 9.38223 4.12499 9.48926 4.125H9.51074C9.61777 4.12499 9.71622 4.12524 9.79883 4.13086ZM2.25195 7.87891C2.21854 7.88119 2.20387 7.88383 2.2002 7.88477C2.17098 7.89739 2.14739 7.92098 2.13477 7.9502C2.13383 7.95387 2.13119 7.96854 2.12891 8.00195C2.12522 8.05596 2.125 8.12839 2.125 8.25V9.75C2.125 9.87161 2.12522 9.94404 2.12891 9.99805C2.13119 10.0315 2.13383 10.0461 2.13477 10.0498C2.14739 10.079 2.17098 10.1026 2.2002 10.1152C2.20387 10.1162 2.21854 10.1188 2.25195 10.1211C2.30596 10.1248 2.37839 10.125 2.5 10.125C2.62161 10.125 2.69404 10.1248 2.74805 10.1211C2.78146 10.1188 2.79613 10.1162 2.7998 10.1152C2.82902 10.1026 2.85261 10.079 2.86523 10.0498C2.86617 10.0461 2.86881 10.0315 2.87109 9.99805C2.87478 9.94404 2.875 9.87161 2.875 9.75V8.25C2.875 8.12839 2.87478 8.05596 2.87109 8.00195C2.86881 7.96854 2.86617 7.95387 2.86523 7.9502C2.85261 7.92098 2.82902 7.89739 2.7998 7.88477C2.79613 7.88383 2.78146 7.88119 2.74805 7.87891C2.69404 7.87522 2.62161 7.875 2.5 7.875C2.37839 7.875 2.30596 7.87522 2.25195 7.87891ZM5.75195 6.62891C5.71854 6.63119 5.70387 6.63383 5.7002 6.63477C5.67098 6.64739 5.64739 6.67098 5.63477 6.7002C5.63383 6.70387 5.63119 6.71854 5.62891 6.75195C5.62522 6.80596 5.625 6.87839 5.625 7V9.75C5.625 9.87161 5.62522 9.94404 5.62891 9.99805C5.63119 10.0315 5.63383 10.0461 5.63477 10.0498C5.64739 10.079 5.67098 10.1026 5.7002 10.1152C5.70387 10.1162 5.71854 10.1188 5.75195 10.1211C5.80596 10.1248 5.87839 10.125 6 10.125C6.12161 10.125 6.19404 10.1248 6.24805 10.1211C6.28146 10.1188 6.29613 10.1162 6.2998 10.1152C6.32902 10.1026 6.35261 10.079 6.36523 10.0498C6.36617 10.0461 6.36881 10.0315 6.37109 9.99805C6.37478 9.94404 6.375 9.87161 6.375 9.75V7C6.375 6.87839 6.37478 6.80596 6.37109 6.75195C6.36881 6.71854 6.36617 6.70387 6.36523 6.7002C6.35261 6.67098 6.32902 6.64739 6.2998 6.63477C6.29613 6.63383 6.28146 6.63119 6.24805 6.62891C6.19404 6.62522 6.12161 6.625 6 6.625C5.87839 6.625 5.80596 6.62522 5.75195 6.62891ZM9.25195 4.87891C9.21854 4.88119 9.20387 4.88383 9.2002 4.88477C9.17098 4.89739 9.14739 4.92098 9.13477 4.9502C9.13383 4.95387 9.13119 4.96854 9.12891 5.00195C9.12522 5.05596 9.125 5.12839 9.125 5.25V9.75C9.125 9.87161 9.12522 9.94404 9.12891 9.99805C9.13119 10.0315 9.13383 10.0461 9.13477 10.0498C9.14739 10.079 9.17098 10.1026 9.2002 10.1152C9.20387 10.1162 9.21854 10.1188 9.25195 10.1211C9.30596 10.1248 9.37839 10.125 9.5 10.125C9.62161 10.125 9.69404 10.1248 9.74805 10.1211C9.78146 10.1188 9.79612 10.1162 9.7998 10.1152C9.82902 10.1026 9.85261 10.079 9.86523 10.0498C9.86617 10.0461 9.86881 10.0315 9.87109 9.99805C9.87478 9.94404 9.875 9.87161 9.875 9.75V5.25C9.875 5.12839 9.87478 5.05596 9.87109 5.00195C9.86881 4.96854 9.86617 4.95387 9.86523 4.9502C9.85261 4.92098 9.82902 4.89739 9.7998 4.88477C9.79613 4.88383 9.78146 4.88119 9.74805 4.87891C9.69404 4.87522 9.62161 4.875 9.5 4.875C9.37839 4.875 9.30596 4.87522 9.25195 4.87891ZM9.75 1.125C9.95711 1.125 10.125 1.29289 10.125 1.5V3C10.125 3.20711 9.95711 3.375 9.75 3.375C9.54289 3.375 9.375 3.20711 9.375 3V2.42871C9.37223 2.43141 9.36999 2.43478 9.36719 2.4375C9.08569 2.71083 8.6574 3.08879 8.06445 3.52148C6.87813 4.38715 5.03166 5.4679 2.36914 6.35547C2.17266 6.42096 1.96002 6.31464 1.89453 6.11816C1.82927 5.92178 1.93547 5.70999 2.13184 5.64453C4.71879 4.78219 6.49696 3.73775 7.62305 2.91602C8.18625 2.50502 8.58717 2.1495 8.84473 1.89941C8.85293 1.89144 8.86025 1.88275 8.86816 1.875H8.25C8.04289 1.875 7.875 1.70711 7.875 1.5C7.875 1.29289 8.04289 1.125 8.25 1.125H9.75Z" fill="#17B26A"/>
</svg>
