<svg width="32" height="32" viewBox="0 0 32 32" fill="none" xmlns="http://www.w3.org/2000/svg">
<path fill-rule="evenodd" clip-rule="evenodd" d="M22.8455 2.3335C23.5601 2.3335 24.1975 2.75884 24.4708 3.41618C24.7441 4.07484 24.5935 4.82814 24.0868 5.3348L20.4747 8.96019C20.2173 9.21752 20.0761 9.55622 20.0761 9.91488C20.0761 10.2735 20.2173 10.6121 20.4733 10.8681C20.7293 11.1241 21.0681 11.2655 21.4268 11.2655C21.7855 11.2655 22.124 11.1241 22.38 10.8681L26.008 7.25355C26.5133 6.74822 27.2668 6.59754 27.9255 6.87087C28.5828 7.14287 29.0082 7.78146 29.0082 8.49612L29.0081 10.5766C29.0018 15.8632 28.8841 16.8348 27.1948 18.5228C25.4455 20.2722 22.6133 20.3362 18.3747 20.3362L17.7529 20.3335L9.81864 28.2678C8.91331 29.1731 7.71467 29.6706 6.44 29.6706C5.15732 29.6664 3.96399 29.1666 3.06799 28.2639C2.17066 27.3746 1.67066 26.1812 1.66798 24.9092C1.66532 23.6306 2.16272 22.4266 3.07072 21.5199L11.0054 13.5851V13.4695C11.0028 8.94943 11.0014 5.96411 12.8187 4.14678C14.501 2.46444 15.4705 2.34409 20.6999 2.33442L22.8455 2.3335ZM11.352 16.0678L4.48531 22.9344C3.95731 23.4624 3.66666 24.1624 3.66799 24.9051C3.66932 25.6411 3.95874 26.3318 4.4814 26.8504C5.00674 27.3798 5.69736 27.6692 6.43336 27.6706C7.18 27.6706 7.87739 27.3812 8.40406 26.8532L15.2705 19.9867C13.4391 19.3522 11.9864 17.8992 11.352 16.0678ZM22.2588 4.3348L20.8464 4.33404C15.6645 4.34218 15.3369 4.45545 14.2321 5.5615C13.0019 6.7917 13.0028 9.44615 13.004 13.4636L13.0043 14.0384C13.0249 16.4103 14.9609 18.3335 17.3375 18.3335H17.9083C21.9092 18.3335 24.5495 18.3335 25.7761 17.1068C26.9601 15.9228 27.0055 15.6308 27.0042 9.31084V9.08011L23.7895 12.2828C23.1575 12.9148 22.316 13.2642 21.424 13.2642C20.532 13.2642 19.6907 12.9149 19.0573 12.2815C18.424 11.6482 18.0747 10.8069 18.0747 9.91488C18.0747 9.02288 18.424 8.18155 19.0573 7.54822L22.2588 4.3348ZM6.67188 26.0002H6.68516C7.42116 26.0002 8.01186 25.4028 8.01186 24.6668C8.01186 23.9308 7.40788 23.3335 6.67188 23.3335C5.93588 23.3335 5.33855 23.9308 5.33855 24.6668C5.33855 25.4028 5.93588 26.0002 6.67188 26.0002Z" fill="#758CA4"/>
</svg>
