<svg width="32" height="32" viewBox="0 0 32 32" fill="none" xmlns="http://www.w3.org/2000/svg">
<path d="M20 17.667C16.508 17.667 13.667 20.508 13.667 24C13.667 27.492 16.508 30.333 20 30.333C23.492 30.333 26.333 27.492 26.333 24C26.333 20.508 23.492 17.667 20 17.667ZM22.665 1.66699C22.1132 1.66717 21.665 2.1151 21.665 2.66699C21.665 3.40146 21.6653 3.81388 21.792 4.25781C21.856 4.5203 21.9631 4.74817 22.0684 4.95605C22.0737 4.96666 22.0797 4.97768 22.085 4.98828C22.2252 5.2416 22.3923 5.44599 22.6211 5.69141L17.7061 9.62305L15.374 7.29199C14.9834 6.90145 14.3506 6.90148 13.96 7.29199C13.5693 7.68266 13.5693 8.31636 13.96 8.70703L14.3799 9.12598L8.32031 15.1943C6.80716 16.6995 5.97403 17.5291 5.73926 18.6836C5.73794 18.6902 5.73542 18.6985 5.73535 18.7051C5.64735 19.1931 5.64735 19.6884 5.73535 20.1777C5.73666 20.1856 5.73795 20.1936 5.73926 20.2002C5.80468 20.5216 5.91899 20.8167 6.0791 21.1094L5.22949 22.3076C4.70549 23.0316 4.38758 23.4712 4.33691 24.0898C4.31299 24.343 4.33758 24.595 4.4082 24.8389C4.49226 25.1683 4.65184 25.4352 4.87598 25.709L1.95996 28.625C1.56929 29.0157 1.56929 29.6494 1.95996 30.04C2.15453 30.2358 2.4102 30.3329 2.66602 30.333H2.66797C2.92378 30.3329 3.17947 30.2345 3.37402 30.04L6.29199 27.123C6.57342 27.3537 6.84607 27.5161 7.18359 27.5996C7.36218 27.6436 7.54495 27.667 7.72754 27.667L7.72949 27.668C7.78935 27.668 7.84834 27.6665 7.9082 27.6611C8.52663 27.6117 8.99097 27.2795 9.68945 26.7783L10.8896 25.9209C11.1843 26.0818 11.4812 26.1954 11.8047 26.2598C11.8714 26.2718 11.937 26.2783 12.001 26.2783V26.2803C12.4688 26.2801 12.8858 25.9505 12.9805 25.4746C13.0871 24.9321 12.7355 24.407 12.1943 24.2988C11.6384 24.1882 10.9619 23.5096 9.73145 22.2725C8.40878 20.9565 7.81486 20.3479 7.7002 19.8105C7.65756 19.5666 7.65754 19.3182 7.7002 19.0742C7.81503 18.5383 8.4089 17.9292 9.73242 16.6123L15.7939 10.54L21.96 16.707C22.1545 16.9027 22.4103 16.9999 22.666 17H22.668C22.9237 16.9999 23.1795 16.9014 23.374 16.707C23.7647 16.3164 23.7647 15.6827 23.374 15.292L22.3789 14.2959L26.3125 9.37695C26.5528 9.60201 26.7537 9.76605 26.9971 9.90527C27.0023 9.90789 27.0065 9.91047 27.0117 9.91309C27.2342 10.0343 27.4744 10.1331 27.7275 10.2051C28.1806 10.333 28.5902 10.332 29.332 10.332C29.884 10.332 30.332 9.88501 30.332 9.33301C30.3319 8.78116 29.8839 8.33301 29.332 8.33301C28.7098 8.33301 28.4511 8.33181 28.2725 8.28125C28.1698 8.25193 28.0681 8.21071 27.9814 8.16406C27.8241 8.07206 27.6253 7.87562 27.1973 7.44629L24.5391 4.79883C24.1524 4.41083 23.9358 4.19196 23.8398 4.0293C23.8066 3.96404 23.7495 3.84696 23.7334 3.78027C23.7281 3.76027 23.7231 3.73973 23.7178 3.71973C23.6658 3.5424 23.665 3.21866 23.665 2.66699C23.665 2.11499 23.217 1.66699 22.665 1.66699ZM20 19.667C22.3893 19.667 24.333 21.6107 24.333 24C24.333 26.3893 22.3893 28.333 20 28.333C17.6107 28.333 15.667 26.3893 15.667 24C15.667 21.6107 17.6107 19.667 20 19.667ZM22.7705 21.6279C22.3465 21.2747 21.7156 21.3319 21.3623 21.7559L19.4404 24.0625C19.4258 24.0798 19.4102 24.0989 19.3955 24.1162C19.3888 24.1095 19.376 24.0957 19.376 24.0957L18.5723 23.291C18.1816 22.9017 17.5479 22.9003 17.1572 23.291C16.7682 23.6816 16.7668 24.3145 17.1572 24.7051L17.9658 25.5146C18.3924 25.9399 18.7965 26.3428 19.4297 26.3428L19.4268 26.3389C19.4494 26.3389 19.4725 26.3369 19.4951 26.3369C20.1801 26.3061 20.552 25.856 20.9785 25.3389L22.8984 23.0361C23.2518 22.6121 23.1945 21.9813 22.7705 21.6279ZM7.78223 23.1514L8.85156 24.2207C8.99487 24.3632 9.13351 24.4965 9.26562 24.624L8.52637 25.1523C8.23052 25.3642 7.86275 25.6265 7.7373 25.668C7.71487 25.668 7.69624 25.6667 7.68164 25.6641C7.571 25.6161 7.23992 25.2868 6.97461 25.0215C6.71728 24.7655 6.39939 24.4479 6.34473 24.3359C6.33944 24.3161 6.33439 24.2936 6.3291 24.2764V24.2656C6.36643 24.1496 6.61147 23.809 6.85547 23.4717L7.37793 22.7363C7.50571 22.8688 7.63944 23.0077 7.78223 23.1514ZM24.8828 7.96289L20.9561 12.873L19.1289 11.0459L24.0352 7.11914L24.8828 7.96289Z" fill="#758CA4"/>
</svg>
