<svg width="12" height="12" viewBox="0 0 12 12" fill="none" xmlns="http://www.w3.org/2000/svg">
<g clip-path="url(#clip0_23114_1513)">
<path d="M5.18107 1.00717C5.71314 0.830632 6.28669 0.830602 6.81876 1.00717C7.34875 1.1831 7.76497 1.60066 8.18302 2.18686C8.59969 2.77116 9.06026 3.58594 9.65372 4.63608L9.67716 4.67709C10.2708 5.72747 10.7311 6.54277 11.018 7.20346C11.3063 7.8673 11.4499 8.4409 11.3354 8.99155C11.2199 9.54584 10.9351 10.05 10.5209 10.431C10.1076 10.811 9.54478 10.9712 8.83634 11.0482C8.13182 11.1248 7.20992 11.1253 6.02384 11.1253H5.97501C4.78924 11.1253 3.86791 11.1247 3.16349 11.0482C2.4551 10.9712 1.89218 10.811 1.47892 10.431C1.06474 10.05 0.779892 9.54583 0.664466 8.99155C0.549895 8.44088 0.693549 7.86733 0.981849 7.20346C1.26878 6.54277 1.72905 5.72747 2.32267 4.67709L2.34611 4.63608C2.93956 3.58597 3.40015 2.77114 3.81681 2.18686C4.23484 1.6007 4.65111 1.18309 5.18107 1.00717ZM6.58244 1.71909C6.20378 1.59344 5.79606 1.59347 5.4174 1.71909C5.11941 1.818 4.8195 2.07224 4.42716 2.62241C4.03617 3.17069 3.59439 3.95049 2.98673 5.02573C2.37911 6.1009 1.93872 6.88204 1.66935 7.50229C1.39963 8.12342 1.33243 8.51897 1.39884 8.83823C1.48264 9.24098 1.6882 9.60551 1.98576 9.87924C2.21947 10.0942 2.58453 10.2313 3.24454 10.3031C3.90363 10.3747 4.78422 10.3753 5.99943 10.3753C7.21494 10.3753 8.09611 10.3747 8.75529 10.3031C9.41494 10.2314 9.77937 10.094 10.0131 9.87924C10.3107 9.6055 10.5172 9.24101 10.601 8.83823C10.6674 8.51899 10.6002 8.12337 10.3305 7.50229C10.0611 6.88204 9.61974 6.1009 9.01212 5.02573C8.40459 3.95071 7.96361 3.17063 7.57267 2.62241C7.18033 2.07223 6.88043 1.818 6.58244 1.71909ZM6.0004 7.50034C6.27655 7.50034 6.5004 7.72419 6.5004 8.00034C6.50024 8.27634 6.27644 8.50034 6.0004 8.50034H5.99552C5.71967 8.50012 5.49569 8.2762 5.49552 8.00034C5.49552 7.72433 5.71957 7.50056 5.99552 7.50034H6.0004ZM5.99943 4.12534C6.20653 4.12534 6.37443 4.29323 6.37443 4.50034V6.50034C6.37426 6.7073 6.20643 6.87534 5.99943 6.87534C5.79261 6.87512 5.62459 6.70717 5.62443 6.50034V4.50034C5.62443 4.29337 5.79251 4.12556 5.99943 4.12534Z" fill="#DC6803"/>
</g>
<defs>
<clipPath id="clip0_23114_1513">
<rect width="12" height="12" fill="white"/>
</clipPath>
</defs>
</svg>
