<svg width="32" height="32" viewBox="0 0 32 32" fill="none" xmlns="http://www.w3.org/2000/svg">
<path d="M21.2995 1.66699C21.8518 1.66699 22.2995 2.11471 22.2995 2.66699C22.2994 3.21913 21.8517 3.66699 21.2995 3.66699H20.2966V8.33789C20.2966 8.84123 20.5539 9.26936 21.0134 9.51562C23.2112 10.6934 25.3119 12.9238 26.3415 15.7129C27.3837 18.5361 27.3198 21.9167 25.1941 25.2852C24.1841 27.0183 21.0064 30.3252 15.9997 30.3252C10.9931 30.3252 7.8154 27.0183 6.80539 25.2852C4.67961 21.9166 4.6167 18.5361 5.65891 15.7129C6.68856 12.9239 8.78834 10.6934 10.9861 9.51562C11.4449 9.26972 11.7019 8.84197 11.7019 8.33789V3.66699H10.6872C10.135 3.66699 9.6874 3.21913 9.68723 2.66699C9.68723 2.11471 10.1349 1.66699 10.6872 1.66699H21.2995ZM13.7019 3.66699V8.33789C13.7019 9.59903 13.0213 10.6937 11.9304 11.2783C10.9275 11.8158 9.93141 12.6386 9.10031 13.668C9.3502 13.6711 9.61807 13.6851 9.90012 13.7158C11.5236 13.8927 13.5971 14.6034 15.4519 16.6641C15.8211 17.0745 15.7879 17.7067 15.3777 18.0762C14.9672 18.4456 14.3351 18.4122 13.9655 18.002C12.487 16.3593 10.8931 15.8359 9.68332 15.7041C9.07044 15.6374 8.54907 15.6706 8.18625 15.7197C8.0143 15.743 7.87951 15.7689 7.78977 15.7891C7.69826 15.9907 7.61221 16.1958 7.53488 16.4053C6.6949 18.6807 6.7204 21.4128 8.50559 24.2324C8.51277 24.2438 8.52034 24.255 8.52707 24.2666C9.28422 25.5772 11.8952 28.3252 15.9997 28.3252C20.1043 28.3252 22.7152 25.5772 23.4724 24.2666C23.4791 24.255 23.4867 24.2438 23.4939 24.2324C25.1023 21.692 25.2787 19.2239 24.6843 17.0957C24.298 17.493 23.7696 17.9447 23.1267 18.2412C22.6252 18.4723 22.0318 18.2534 21.8005 17.752C21.5692 17.2504 21.7882 16.6561 22.2898 16.4248C22.7034 16.234 23.0956 15.8852 23.406 15.5371C23.5553 15.3696 23.6732 15.2159 23.7527 15.1064C23.7776 15.072 23.7976 15.0417 23.8142 15.0176C22.8697 13.3546 21.4782 12.0336 20.0691 11.2783C18.9788 10.694 18.2966 9.59977 18.2966 8.33789V3.66699H13.7019ZM13.032 22.7148C13.7417 22.519 14.4756 22.9358 14.6716 23.6455C14.8675 24.3553 14.4508 25.0892 13.7409 25.2852L13.7302 25.2891C13.0204 25.485 12.2855 25.0682 12.0896 24.3584C11.8937 23.6486 12.3105 22.9148 13.0202 22.7188L13.032 22.7148ZM18.3659 17.3818C19.0757 17.1863 19.8098 17.6027 20.0056 18.3125C20.2013 19.0222 19.7845 19.7562 19.0749 19.9521L19.0632 19.9551C18.3533 20.1509 17.6184 19.7343 17.4226 19.0244C17.2271 18.3147 17.6445 17.5805 18.3542 17.3848L18.3659 17.3818Z" fill="#758CA4"/>
</svg>
