<svg width="12" height="12" viewBox="0 0 12 12" fill="none" xmlns="http://www.w3.org/2000/svg">
<path d="M2.79883 4.13034C2.88765 4.1364 2.98571 4.15075 3.08496 4.19187C3.29926 4.2807 3.46982 4.45117 3.55859 4.6655C3.59954 4.76453 3.61308 4.86201 3.61914 4.95066C3.62478 5.03324 3.62501 5.13173 3.625 5.23874V9.7612C3.62501 9.86819 3.62477 9.96672 3.61914 10.0493C3.61308 10.1379 3.59955 10.2354 3.55859 10.3344C3.46981 10.5488 3.29927 10.7192 3.08496 10.8081C2.98571 10.8492 2.88765 10.8635 2.79883 10.8696C2.71623 10.8752 2.61775 10.8745 2.51074 10.8745H2.48926C2.38225 10.8745 2.28377 10.8752 2.20117 10.8696C2.11235 10.8635 2.01429 10.8492 1.91504 10.8081C1.70073 10.7192 1.53019 10.5488 1.44141 10.3344C1.40045 10.2354 1.38692 10.1379 1.38086 10.0493C1.37523 9.96672 1.37499 9.86819 1.375 9.7612V5.23874C1.37499 5.13173 1.37523 5.03324 1.38086 4.95066C1.38692 4.86201 1.40046 4.76453 1.44141 4.6655C1.53018 4.45117 1.70074 4.2807 1.91504 4.19187C2.01429 4.15075 2.11235 4.1364 2.20117 4.13034C2.28378 4.12472 2.38224 4.12448 2.48926 4.12448H2.51074C2.61775 4.12448 2.71623 4.12472 2.79883 4.13034ZM6.29883 5.88034C6.38765 5.8864 6.48571 5.90075 6.58496 5.94187C6.79926 6.0307 6.96982 6.20117 7.05859 6.4155C7.09954 6.51453 7.11308 6.61201 7.11914 6.70066C7.12478 6.78323 7.12501 6.88173 7.125 6.98874V9.7612C7.12501 9.86819 7.12477 9.96672 7.11914 10.0493C7.11308 10.1379 7.09955 10.2354 7.05859 10.3344C6.96981 10.5488 6.79927 10.7192 6.58496 10.8081C6.48571 10.8492 6.38765 10.8635 6.29883 10.8696C6.21623 10.8752 6.11775 10.8745 6.01074 10.8745H5.98926C5.88225 10.8745 5.78377 10.8752 5.70117 10.8696C5.61235 10.8635 5.51429 10.8492 5.41504 10.8081C5.20073 10.7192 5.03019 10.5488 4.94141 10.3344C4.90045 10.2354 4.88692 10.1379 4.88086 10.0493C4.87523 9.96672 4.87499 9.86819 4.875 9.7612V6.98874C4.87499 6.88173 4.87523 6.78323 4.88086 6.70066C4.88692 6.61201 4.90046 6.51453 4.94141 6.4155C5.03018 6.20117 5.20074 6.0307 5.41504 5.94187C5.51429 5.90075 5.61235 5.8864 5.70117 5.88034C5.78378 5.87472 5.88224 5.87448 5.98926 5.87448H6.01074C6.11775 5.87448 6.21623 5.87472 6.29883 5.88034ZM9.79883 7.13034C9.88765 7.1364 9.98571 7.15075 10.085 7.19187C10.2993 7.2807 10.4698 7.45117 10.5586 7.6655C10.5995 7.76453 10.6131 7.86201 10.6191 7.95066C10.6248 8.03323 10.625 8.13173 10.625 8.23874V9.7612C10.625 9.86819 10.6248 9.96672 10.6191 10.0493C10.6131 10.1379 10.5995 10.2354 10.5586 10.3344C10.4698 10.5488 10.2993 10.7192 10.085 10.8081C9.98571 10.8492 9.88765 10.8635 9.79883 10.8696C9.71623 10.8752 9.61775 10.8745 9.51074 10.8745H9.48926C9.38225 10.8745 9.28377 10.8752 9.20117 10.8696C9.11235 10.8635 9.01429 10.8492 8.91504 10.8081C8.70073 10.7192 8.53019 10.5488 8.44141 10.3344C8.40045 10.2354 8.38692 10.1379 8.38086 10.0493C8.37523 9.96672 8.37499 9.86819 8.375 9.7612V8.23874C8.37499 8.13173 8.37523 8.03323 8.38086 7.95066C8.38692 7.86201 8.40046 7.76453 8.44141 7.6655C8.53018 7.45117 8.70074 7.2807 8.91504 7.19187C9.01429 7.15075 9.11235 7.1364 9.20117 7.13034C9.28378 7.12472 9.38224 7.12448 9.48926 7.12448H9.51074C9.61775 7.12448 9.71623 7.12472 9.79883 7.13034ZM2.25195 4.87839C2.21854 4.88067 2.20387 4.88429 2.2002 4.88523C2.17098 4.89791 2.14734 4.92138 2.13477 4.95066C2.1338 4.95453 2.13115 4.96877 2.12891 5.00144C2.12523 5.05537 2.125 5.12814 2.125 5.24948V9.74948C2.125 9.87075 2.12525 9.94358 2.12891 9.99753C2.13117 10.0307 2.1338 10.0455 2.13477 10.0493C2.14734 10.0786 2.17097 10.102 2.2002 10.1147C2.20387 10.1157 2.21856 10.1183 2.25195 10.1206C2.30596 10.1243 2.37838 10.1245 2.5 10.1245C2.62162 10.1245 2.69404 10.1243 2.74805 10.1206C2.78144 10.1183 2.79613 10.1157 2.7998 10.1147C2.82903 10.102 2.85266 10.0786 2.86523 10.0493C2.8662 10.0455 2.86883 10.0307 2.87109 9.99753C2.87475 9.94358 2.875 9.87075 2.875 9.74948V5.24948C2.875 5.12814 2.87477 5.05537 2.87109 5.00144C2.86885 4.96877 2.8662 4.95453 2.86523 4.95066C2.85266 4.92138 2.82902 4.89791 2.7998 4.88523C2.79613 4.88429 2.78146 4.88067 2.74805 4.87839C2.69405 4.87471 2.62159 4.87448 2.5 4.87448C2.37841 4.87448 2.30595 4.87471 2.25195 4.87839ZM5.75195 6.62839C5.71854 6.63067 5.70387 6.63429 5.7002 6.63523C5.67098 6.64791 5.64734 6.67138 5.63477 6.70066C5.6338 6.70453 5.63115 6.71877 5.62891 6.75144C5.62523 6.80537 5.625 6.87815 5.625 6.99948V9.74948C5.625 9.87075 5.62525 9.94358 5.62891 9.99753C5.63117 10.0307 5.63381 10.0455 5.63477 10.0493C5.64734 10.0786 5.67097 10.102 5.7002 10.1147C5.70387 10.1157 5.71856 10.1183 5.75195 10.1206C5.80596 10.1243 5.87838 10.1245 6 10.1245C6.12162 10.1245 6.19404 10.1243 6.24805 10.1206C6.28144 10.1183 6.29613 10.1157 6.2998 10.1147C6.32903 10.102 6.35266 10.0786 6.36523 10.0493C6.3662 10.0455 6.36883 10.0307 6.37109 9.99753C6.37475 9.94358 6.375 9.87075 6.375 9.74948V6.99948C6.375 6.87815 6.37477 6.80537 6.37109 6.75144C6.36885 6.71876 6.3662 6.70453 6.36523 6.70066C6.35266 6.67138 6.32902 6.64791 6.2998 6.63523C6.29613 6.63429 6.28146 6.63067 6.24805 6.62839C6.19405 6.62471 6.12159 6.62448 6 6.62448C5.87841 6.62448 5.80595 6.62471 5.75195 6.62839ZM9.25195 7.87839C9.21854 7.88067 9.20387 7.88429 9.2002 7.88523C9.17098 7.89791 9.14734 7.92138 9.13477 7.95066C9.1338 7.95453 9.13115 7.96877 9.12891 8.00144C9.12523 8.05537 9.125 8.12815 9.125 8.24948V9.74948C9.125 9.87075 9.12525 9.94358 9.12891 9.99753C9.13117 10.0307 9.1338 10.0455 9.13477 10.0493C9.14734 10.0786 9.17097 10.102 9.2002 10.1147C9.20387 10.1157 9.21856 10.1183 9.25195 10.1206C9.30596 10.1243 9.37838 10.1245 9.5 10.1245C9.62162 10.1245 9.69404 10.1243 9.74805 10.1206C9.78144 10.1183 9.79613 10.1157 9.7998 10.1147C9.82903 10.102 9.85266 10.0786 9.86523 10.0493C9.8662 10.0455 9.86883 10.0307 9.87109 9.99753C9.87475 9.94358 9.875 9.87075 9.875 9.74948V8.24948C9.875 8.12815 9.87477 8.05537 9.87109 8.00144C9.86885 7.96876 9.8662 7.95453 9.86523 7.95066C9.85266 7.92138 9.82902 7.89791 9.7998 7.88523C9.79613 7.88429 9.78146 7.88067 9.74805 7.87839C9.69405 7.87471 9.62159 7.87448 9.5 7.87448C9.37841 7.87448 9.30595 7.87471 9.25195 7.87839ZM1.73438 1.23483C1.88082 1.08839 2.11918 1.08839 2.26563 1.23483C4.09453 3.06366 5.91691 3.9727 7.27441 4.42526C7.95367 4.65168 8.51776 4.764 8.9082 4.8198C8.91429 4.82067 8.92076 4.82091 8.92676 4.82175L8.45703 4.23386C8.32799 4.07223 8.35423 3.83683 8.51563 3.70749C8.67735 3.57811 8.91359 3.60436 9.04297 3.76608L10.043 5.01608C10.172 5.17773 10.1458 5.41312 9.98438 5.54245L8.73438 6.54245C8.57265 6.67183 8.33641 6.64558 8.20703 6.48386C8.07799 6.32223 8.10423 6.08683 8.26563 5.95749L8.76563 5.55612C8.33827 5.49309 7.74409 5.37248 7.03809 5.13718C5.5832 4.65222 3.65519 3.68592 1.73438 1.76511C1.58824 1.61873 1.58826 1.38123 1.73438 1.23483Z" fill="#D92D20"/>
</svg>
