<svg width="24" height="24" viewBox="0 0 24 24" fill="none" xmlns="http://www.w3.org/2000/svg">
<g clip-path="url(#clip0_23114_1780)" filter="url(#filter0_d_23114_1780)">
<path d="M12 2C6.45 2 2 6.45 2 12C2 17.55 6.45 22 12 22C17.55 22 22 17.55 22 12C22 6.45 17.55 2 12 2ZM17.875 9.15L10.15 16.65C9.9125 16.8875 9.6 17 9.275 17C8.95 17 8.6625 16.8875 8.425 16.6625L4.9 13.4C4.3875 12.925 4.3625 12.1375 4.8375 11.6375C5.3125 11.125 6.1 11.1 6.6 11.575L9.25 14.0375L16.125 7.3625C16.625 6.8875 17.4125 6.8875 17.8875 7.3875C18.3625 7.8875 18.3625 8.675 17.8625 9.15H17.875Z" fill="#DCFAE6"/>
</g>
<defs>
<filter id="filter0_d_23114_1780" x="0" y="0" width="24" height="24" filterUnits="userSpaceOnUse" color-interpolation-filters="sRGB">
<feFlood flood-opacity="0" result="BackgroundImageFix"/>
<feColorMatrix in="SourceAlpha" type="matrix" values="0 0 0 0 0 0 0 0 0 0 0 0 0 0 0 0 0 0 127 0" result="hardAlpha"/>
<feOffset/>
<feGaussianBlur stdDeviation="1"/>
<feColorMatrix type="matrix" values="0 0 0 0 1 0 0 0 0 1 0 0 0 0 1 0 0 0 1 0"/>
<feBlend mode="normal" in2="BackgroundImageFix" result="effect1_dropShadow_23114_1780"/>
<feBlend mode="normal" in="SourceGraphic" in2="effect1_dropShadow_23114_1780" result="shape"/>
</filter>
<clipPath id="clip0_23114_1780">
<rect width="20" height="20" fill="white" transform="translate(2 2)"/>
</clipPath>
</defs>
</svg>
