<svg width="24" height="24" viewBox="0 0 24 24" fill="none" xmlns="http://www.w3.org/2000/svg">
<g clip-path="url(#clip0_23114_2411)" filter="url(#filter0_d_23114_2411)">
<path fill-rule="evenodd" clip-rule="evenodd" d="M12 2C6.5 2 2 6.5 2 12C2 17.5 6.5 22 12 22C17.5 22 22 17.5 22 12C22 6.5 17.5 2 12 2ZM16.6375 14.8625C17.125 15.35 17.125 16.1375 16.6375 16.625C16.3875 16.875 16.075 16.9875 15.75 16.9875C15.425 16.9875 15.1125 16.8625 14.8625 16.625L12 13.7625L9.1375 16.625C8.65 17.1125 7.8625 17.1125 7.375 16.625C6.8875 16.1375 6.8875 15.35 7.375 14.8625L10.2375 12L7.375 9.1375C6.8875 8.65 6.8875 7.8625 7.375 7.375C7.8625 6.8875 8.65 6.8875 9.1375 7.375L12 10.2375L14.8625 7.375C15.35 6.8875 16.1375 6.8875 16.625 7.375C17.1125 7.8625 17.1125 8.65 16.625 9.1375L13.7625 12L16.625 14.8625H16.6375Z" fill="#FEE4E2"/>
</g>
<defs>
<filter id="filter0_d_23114_2411" x="0" y="0" width="24" height="24" filterUnits="userSpaceOnUse" color-interpolation-filters="sRGB">
<feFlood flood-opacity="0" result="BackgroundImageFix"/>
<feColorMatrix in="SourceAlpha" type="matrix" values="0 0 0 0 0 0 0 0 0 0 0 0 0 0 0 0 0 0 127 0" result="hardAlpha"/>
<feOffset/>
<feGaussianBlur stdDeviation="1"/>
<feColorMatrix type="matrix" values="0 0 0 0 1 0 0 0 0 1 0 0 0 0 1 0 0 0 1 0"/>
<feBlend mode="normal" in2="BackgroundImageFix" result="effect1_dropShadow_23114_2411"/>
<feBlend mode="normal" in="SourceGraphic" in2="effect1_dropShadow_23114_2411" result="shape"/>
</filter>
<clipPath id="clip0_23114_2411">
<rect width="20" height="20" fill="white" transform="translate(2 2)"/>
</clipPath>
</defs>
</svg>
