<svg width="20" height="22" viewBox="0 0 20 22" fill="none" xmlns="http://www.w3.org/2000/svg">
<g filter="url(#filter0_d_23114_1769)">
<path d="M7.56543 2.98199C8.94413 1.67267 11.0578 1.67267 12.4365 2.98199C13.5032 3.99496 14.8104 5.39119 15.8545 6.99273C16.8939 8.58716 17.709 10.4418 17.709 12.357C17.7087 16.08 14.7862 19.9166 10.001 19.9166C5.21571 19.9166 2.29321 16.08 2.29297 12.357C2.29297 10.4418 3.10804 8.58716 4.14746 6.99273C5.19154 5.39119 6.4988 3.99496 7.56543 2.98199ZM11.5752 3.88824C10.679 3.03722 9.323 3.03722 8.42676 3.88824C7.39902 4.86425 6.16675 6.18529 5.19531 7.67535C4.21917 9.17268 3.54297 10.7854 3.54297 12.357C3.54321 15.4709 5.9846 18.6666 10.001 18.6666C14.0174 18.6666 16.4587 15.4709 16.459 12.357C16.459 10.7854 15.7828 9.17268 14.8066 7.67535C13.8352 6.18529 12.6029 4.86425 11.5752 3.88824ZM13.334 11.9996C13.6791 11.9996 13.9588 12.2795 13.959 12.6246C13.959 14.8107 12.1871 16.5835 10.001 16.5835C9.65593 16.5835 9.37619 16.3035 9.37598 15.9585C9.37598 15.6134 9.6558 15.3335 10.001 15.3335C11.4967 15.3335 12.709 14.1203 12.709 12.6246C12.7091 12.2796 12.989 11.9997 13.334 11.9996Z" fill="#DCFAE6"/>
</g>
<defs>
<filter id="filter0_d_23114_1769" x="-2" y="-1.04175" width="24" height="24" filterUnits="userSpaceOnUse" color-interpolation-filters="sRGB">
<feFlood flood-opacity="0" result="BackgroundImageFix"/>
<feColorMatrix in="SourceAlpha" type="matrix" values="0 0 0 0 0 0 0 0 0 0 0 0 0 0 0 0 0 0 127 0" result="hardAlpha"/>
<feOffset/>
<feGaussianBlur stdDeviation="1"/>
<feColorMatrix type="matrix" values="0 0 0 0 1 0 0 0 0 1 0 0 0 0 1 0 0 0 1 0"/>
<feBlend mode="normal" in2="BackgroundImageFix" result="effect1_dropShadow_23114_1769"/>
<feBlend mode="normal" in="SourceGraphic" in2="effect1_dropShadow_23114_1769" result="shape"/>
</filter>
</defs>
</svg>
