<svg width="24" height="24" viewBox="0 0 24 24" fill="none" xmlns="http://www.w3.org/2000/svg">
<g clip-path="url(#clip0_23114_2903)" filter="url(#filter0_d_23114_2903)">
<path fill-rule="evenodd" clip-rule="evenodd" d="M12 2C6.5 2 2 6.5 2 12C2 17.5 6.5 22 12 22C17.5 22 22 17.5 22 12C22 6.5 17.5 2 12 2ZM13.25 17C13.25 17.6875 12.6875 18.25 12 18.25C11.3125 18.25 10.75 17.6875 10.75 17V10.75C10.75 10.0625 11.3125 9.5 12 9.5C12.6875 9.5 13.25 10.0625 13.25 10.75V17ZM12.025 8.25C11.3375 8.25 10.775 7.6875 10.775 7C10.775 6.3125 11.325 5.75 12.0125 5.75H12.025C12.7125 5.75 13.275 6.3125 13.275 7C13.275 7.6875 12.7125 8.25 12.025 8.25Z" fill="#1570EF"/>
</g>
<defs>
<filter id="filter0_d_23114_2903" x="0" y="0" width="24" height="24" filterUnits="userSpaceOnUse" color-interpolation-filters="sRGB">
<feFlood flood-opacity="0" result="BackgroundImageFix"/>
<feColorMatrix in="SourceAlpha" type="matrix" values="0 0 0 0 0 0 0 0 0 0 0 0 0 0 0 0 0 0 127 0" result="hardAlpha"/>
<feOffset/>
<feGaussianBlur stdDeviation="1"/>
<feColorMatrix type="matrix" values="0 0 0 0 1 0 0 0 0 1 0 0 0 0 1 0 0 0 1 0"/>
<feBlend mode="normal" in2="BackgroundImageFix" result="effect1_dropShadow_23114_2903"/>
<feBlend mode="normal" in="SourceGraphic" in2="effect1_dropShadow_23114_2903" result="shape"/>
</filter>
<clipPath id="clip0_23114_2903">
<rect width="20" height="20" fill="white" transform="translate(2 2)"/>
</clipPath>
</defs>
</svg>
