<svg width="16" height="16" viewBox="0 0 16 16" fill="none" xmlns="http://www.w3.org/2000/svg">
<g clip-path="url(#clip0_23114_3130)">
<path d="M5.36719 7.5C5.9661 7.49998 6.46582 7.5004 6.86231 7.55371C7.2807 7.61 7.65835 7.73355 7.96191 8.03711C8.26548 8.34067 8.38902 8.71833 8.44531 9.13672C8.49862 9.5332 8.49904 10.0329 8.49902 10.6318V12.0342C8.49904 12.633 8.49858 13.1328 8.44531 13.5293C8.38904 13.9478 8.26556 14.3262 7.96191 14.6299C7.65837 14.9333 7.28064 15.057 6.86231 15.1133C6.46582 15.1666 5.9661 15.167 5.36719 15.167H3.96484C3.36602 15.167 2.8662 15.1665 2.46973 15.1133C2.0512 15.057 1.67279 14.9335 1.36914 14.6299C1.0655 14.3262 0.942012 13.9478 0.885743 13.5293C0.832492 13.1329 0.832012 12.6338 0.832032 12.0352V10.6318C0.832012 10.0329 0.832437 9.5332 0.885743 9.13672C0.942021 8.71839 1.06569 8.34065 1.36914 8.03711C1.67279 7.73346 2.0512 7.60998 2.46973 7.55371C2.8662 7.50044 3.366 7.49998 3.96484 7.5H5.36719ZM12.6826 10.167C12.9789 10.167 13.2266 10.1668 13.4297 10.1807C13.6409 10.1951 13.8407 10.2265 14.0342 10.3066C14.4832 10.4928 14.8403 10.8497 15.0264 11.2988C15.1064 11.4923 15.137 11.6921 15.1514 11.9033C15.1652 12.1063 15.166 12.3534 15.166 12.6494V12.6836C15.166 12.9799 15.1652 13.2276 15.1514 13.4307C15.1369 13.6419 15.1065 13.8417 15.0264 14.0352C14.8403 14.4843 14.4833 14.8413 14.0342 15.0273C13.8407 15.1075 13.6409 15.1379 13.4297 15.1523C13.2266 15.1662 12.9789 15.167 12.6826 15.167H12.6484C12.3524 15.167 12.1053 15.1662 11.9023 15.1523C11.6911 15.1379 11.4913 15.1074 11.2979 15.0273C10.8488 14.8413 10.4918 14.4842 10.3057 14.0352C10.2255 13.8417 10.1941 13.6419 10.1797 13.4307C10.1658 13.2276 10.166 12.9799 10.166 12.6836V12.6494C10.166 12.3534 10.1659 12.1063 10.1797 11.9033C10.1941 11.692 10.2255 11.4924 10.3057 11.2988C10.4917 10.8496 10.8486 10.4927 11.2979 10.3066C11.4914 10.2265 11.691 10.1951 11.9023 10.1807C12.1053 10.1668 12.3524 10.167 12.6484 10.167H12.6826ZM3.99902 8.5C3.35635 8.5 2.92456 8.50065 2.60254 8.54395C2.29492 8.58531 2.16305 8.65727 2.07617 8.74414C1.98937 8.83102 1.91829 8.96306 1.87695 9.27051C1.83369 9.59251 1.83203 10.0245 1.83203 10.667V12C1.83203 12.6427 1.83366 13.0745 1.87695 13.3965C1.91832 13.704 1.98931 13.836 2.07617 13.9229C2.16304 14.0097 2.29498 14.0807 2.60254 14.1221C2.92456 14.1654 3.35635 14.167 3.99902 14.167H5.33203C5.97456 14.167 6.40651 14.1653 6.72852 14.1221C7.03596 14.0807 7.168 14.0097 7.25488 13.9229C7.34176 13.836 7.41372 13.7041 7.45508 13.3965C7.49837 13.0745 7.49902 12.6427 7.49902 12V10.667C7.49902 10.0245 7.49834 9.5925 7.45508 9.27051C7.41372 8.96287 7.34176 8.83102 7.25488 8.74414C7.16801 8.65726 7.03615 8.58531 6.72852 8.54395C6.40652 8.50069 5.97451 8.5 5.33203 8.5H3.99902ZM12.666 11.167C12.3485 11.167 12.1347 11.1665 11.9697 11.1777C11.8095 11.1887 11.7311 11.2092 11.6797 11.2305C11.4759 11.315 11.3141 11.4769 11.2295 11.6807C11.2082 11.7321 11.1877 11.8105 11.1768 11.9707C11.1655 12.1357 11.166 12.3495 11.166 12.667C11.166 12.9843 11.1655 13.1974 11.1768 13.3623C11.1877 13.5227 11.2082 13.6009 11.2295 13.6523C11.3141 13.8563 11.4757 14.0189 11.6797 14.1035C11.7311 14.1248 11.8095 14.1443 11.9697 14.1553C12.1347 14.1665 12.3485 14.167 12.666 14.167C12.9833 14.167 13.1964 14.1665 13.3613 14.1553C13.5217 14.1443 13.5999 14.1248 13.6514 14.1035C13.8556 14.0189 14.018 13.8565 14.1025 13.6523C14.1238 13.6009 14.1433 13.5227 14.1543 13.3623C14.1655 13.1974 14.166 12.9843 14.166 12.667C14.166 12.3495 14.1656 12.1357 14.1543 11.9707C14.1433 11.8105 14.1238 11.7321 14.1025 11.6807C14.018 11.4767 13.8554 11.315 13.6514 11.2305C13.5999 11.2092 13.5217 11.1887 13.3613 11.1777C13.1964 11.1665 12.9833 11.167 12.666 11.167ZM12.6826 0.833008C12.9789 0.833003 13.2266 0.833802 13.4297 0.847656C13.6409 0.862093 13.8407 0.892524 14.0342 0.972656C14.4833 1.15873 14.8403 1.51572 15.0264 1.96484C15.1065 2.1583 15.1369 2.3581 15.1514 2.56934C15.1652 2.77239 15.166 3.02014 15.166 3.31641V6.0166C15.166 6.31291 15.1652 6.5606 15.1514 6.76367C15.1369 6.97497 15.1065 7.17466 15.0264 7.36816C14.8403 7.8173 14.4833 8.17425 14.0342 8.36035C13.8407 8.44049 13.6409 8.47189 13.4297 8.48633C13.2266 8.50018 12.9789 8.50001 12.6826 8.5H12.6484C12.3524 8.50001 12.1053 8.50016 11.9023 8.48633C11.6911 8.47191 11.4913 8.44044 11.2979 8.36035C10.8487 8.17429 10.4917 7.81735 10.3057 7.36816C10.2255 7.1746 10.1941 6.97503 10.1797 6.76367C10.1658 6.5606 10.166 6.31291 10.166 6.0166V3.31641C10.166 3.02014 10.1658 2.77239 10.1797 2.56934C10.1941 2.35809 10.2255 2.15831 10.3057 1.96484C10.4918 1.51579 10.8488 1.15868 11.2979 0.972656C11.4913 0.892601 11.6911 0.862069 11.9023 0.847656C12.1053 0.83382 12.3524 0.833003 12.6484 0.833008H12.6826ZM12.666 1.83301C12.3485 1.83301 12.1347 1.83347 11.9697 1.84473C11.8095 1.85568 11.7311 1.8752 11.6797 1.89648C11.4757 1.98106 11.3141 2.14366 11.2295 2.34766C11.2082 2.39908 11.1877 2.47728 11.1768 2.6377C11.1655 2.80261 11.166 3.01572 11.166 3.33301V6C11.166 6.31733 11.1655 6.53037 11.1768 6.69531C11.1877 6.85574 11.2082 6.93392 11.2295 6.98535C11.314 7.18941 11.4757 7.3519 11.6797 7.43652C11.7311 7.45781 11.8096 7.47732 11.9697 7.48828C12.1347 7.49954 12.3485 7.5 12.666 7.5C12.9833 7.5 13.1964 7.49953 13.3613 7.48828C13.5217 7.47733 13.5999 7.45782 13.6514 7.43652C13.8555 7.35193 14.018 7.18951 14.1025 6.98535C14.1238 6.93391 14.1434 6.8555 14.1543 6.69531C14.1655 6.53037 14.166 6.31734 14.166 6V3.33301C14.166 3.01572 14.1655 2.80261 14.1543 2.6377C14.1433 2.4773 14.1238 2.39908 14.1025 2.34766C14.018 2.14347 13.8556 1.98106 13.6514 1.89648C13.5999 1.87519 13.5217 1.85568 13.3613 1.84473C13.1964 1.83347 12.9833 1.83301 12.666 1.83301ZM6.01563 0.833008C6.31193 0.833003 6.55962 0.833801 6.7627 0.847656C6.97399 0.86208 7.17368 0.892532 7.36719 0.972656C7.81633 1.1587 8.17328 1.51574 8.35938 1.96484C8.43951 2.15831 8.47092 2.35809 8.48535 2.56934C8.49921 2.77239 8.49903 3.02014 8.49902 3.31641V3.35059C8.49903 3.64659 8.49918 3.89375 8.48535 4.09668C8.47094 4.30796 8.43947 4.50768 8.35938 4.70117C8.17331 5.15037 7.81637 5.50728 7.36719 5.69336C7.17363 5.77354 6.97406 5.80491 6.7627 5.81934C6.55962 5.83319 6.31193 5.83301 6.01563 5.83301H3.31543C3.01916 5.83301 2.77141 5.83319 2.56836 5.81934C2.35712 5.8049 2.15733 5.77349 1.96387 5.69336C1.51481 5.50725 1.1577 5.15027 0.97168 4.70117C0.891625 4.50772 0.861093 4.30792 0.84668 4.09668C0.832844 3.89374 0.832027 3.64661 0.832032 3.35059V3.31641C0.832027 3.02014 0.832826 2.77239 0.84668 2.56934C0.861117 2.3581 0.891549 2.1583 0.97168 1.96484C1.15775 1.51572 1.51475 1.15873 1.96387 0.972656C2.15732 0.892525 2.35713 0.862093 2.56836 0.847656C2.77141 0.833802 3.01916 0.833003 3.31543 0.833008H6.01563ZM3.33203 1.83301C3.01474 1.83301 2.80164 1.83347 2.63672 1.84473C2.47633 1.85568 2.3981 1.87519 2.34668 1.89648C2.14249 1.98106 1.98009 2.14347 1.89551 2.34766C1.87421 2.39908 1.8547 2.4773 1.84375 2.6377C1.8325 2.80261 1.83203 3.01572 1.83203 3.33301C1.83203 3.65048 1.83249 3.86432 1.84375 4.0293C1.85471 4.18948 1.87422 4.26795 1.89551 4.31934C1.98009 4.52332 2.14268 4.68496 2.34668 4.76953C2.3981 4.79083 2.4763 4.81131 2.63672 4.82227C2.80164 4.83352 3.01474 4.83301 3.33203 4.83301H5.99902C6.31635 4.83301 6.52939 4.83351 6.69434 4.82227C6.85476 4.81132 6.93294 4.79083 6.98438 4.76953C7.18844 4.68501 7.35092 4.52334 7.43555 4.31934C7.45683 4.26795 7.47635 4.18946 7.48731 4.0293C7.49856 3.86432 7.49902 3.65048 7.49902 3.33301C7.49902 3.01572 7.49856 2.80261 7.48731 2.6377C7.47635 2.47731 7.45685 2.39908 7.43555 2.34766C7.35096 2.14352 7.18853 1.98105 6.98438 1.89648C6.93294 1.87522 6.85452 1.85566 6.69434 1.84473C6.52939 1.83348 6.31636 1.83301 5.99902 1.83301H3.33203Z" fill="#161616"/>
</g>
<defs>
<clipPath id="clip0_23114_3130">
<rect width="16" height="16" fill="white"/>
</clipPath>
</defs>
</svg>
