<svg width="16" height="16" viewBox="0 0 16 16" fill="none" xmlns="http://www.w3.org/2000/svg">
<path d="M8.00139 0.833008C9.76851 0.833227 11.2403 2.18817 11.3871 3.94922L11.4643 4.87891C11.5332 4.88512 11.6007 4.88932 11.6655 4.89746C12.1985 4.96449 12.652 5.10784 13.0385 5.43555C13.4243 5.76272 13.6421 6.18781 13.8002 6.70508C13.9524 7.20289 14.0645 7.84012 14.2035 8.62891L14.4594 10.0811C14.6527 11.177 14.8073 12.0526 14.8315 12.7451C14.8563 13.459 14.7476 14.0715 14.3295 14.5771C13.9105 15.0838 13.3316 15.3012 12.6303 15.4023C11.9516 15.5002 11.0722 15.5 9.97404 15.5H6.02873C4.9306 15.5 4.05113 15.5002 3.37248 15.4023C2.67119 15.3012 2.09229 15.0838 1.67326 14.5771C1.25521 14.0715 1.14644 13.459 1.17131 12.7451C1.19545 12.0526 1.35012 11.1771 1.54338 10.0811L1.79924 8.62891C1.93831 7.84013 2.05041 7.20288 2.20256 6.70508C2.36067 6.18781 2.57848 5.76272 2.96428 5.43555C3.35076 5.10784 3.80428 4.96449 4.33733 4.89746C4.40152 4.88939 4.46827 4.88508 4.53654 4.87891L4.61467 3.94922C4.76146 2.18802 6.23408 0.833008 8.00139 0.833008ZM6.31291 5.83301C5.48148 5.83301 4.90444 5.83408 4.46233 5.88965C4.03449 5.94343 3.79404 6.04283 3.61076 6.19824C3.42699 6.35415 3.28772 6.57804 3.15959 6.99707C3.02746 7.42938 2.92482 8.00646 2.77873 8.83496L2.53459 10.2158C2.33286 11.3599 2.19174 12.1663 2.17033 12.7803C2.14946 13.3807 2.24882 13.7036 2.44377 13.9395C2.63778 14.1741 2.93169 14.3279 3.51604 14.4121C4.11495 14.4984 4.92176 14.5 6.06975 14.5H9.93303C11.081 14.5 11.8878 14.4984 12.4867 14.4121C13.0711 14.3279 13.365 14.1741 13.559 13.9395C13.754 13.7036 13.8523 13.3807 13.8315 12.7803C13.8101 12.1663 13.6699 11.3599 13.4682 10.2158L13.224 8.83496C13.078 8.00646 12.9753 7.42938 12.8432 6.99707C12.7151 6.57805 12.5758 6.35415 12.392 6.19824C12.2087 6.04283 11.9683 5.94343 11.5405 5.88965C11.0983 5.83408 10.5213 5.83301 9.68987 5.83301H6.31291ZM10.0473 6.83496C10.3221 6.86029 10.5246 7.10406 10.4994 7.37891C10.3855 8.61749 9.26216 9.49998 8.00139 9.5C6.7406 9.5 5.61731 8.6175 5.50334 7.37891C5.47818 7.10403 5.68059 6.86026 5.95549 6.83496C6.23034 6.80967 6.47394 7.01233 6.49944 7.28711C6.55883 7.93262 7.17461 8.5 8.00139 8.5C8.82815 8.49998 9.44395 7.93261 9.50334 7.28711C9.52884 7.01233 9.77244 6.80967 10.0473 6.83496ZM8.00139 1.83301C6.75417 1.83301 5.71437 2.78932 5.61076 4.03223L5.54338 4.83887C5.77289 4.83654 6.01805 4.833 6.27971 4.83301H9.72307C9.98399 4.833 10.2285 4.83656 10.4574 4.83887L10.391 4.03223C10.2874 2.78947 9.24842 1.83323 8.00139 1.83301Z" fill="#161616"/>
</svg>
