<svg width="16" height="16" viewBox="0 0 16 16" fill="none" xmlns="http://www.w3.org/2000/svg">
<path d="M10.4541 1.16675C11.3207 1.16675 11.9275 1.16673 12.4541 1.43335C12.9807 1.69997 13.3473 2.17982 13.8672 2.87964C13.8872 2.90631 13.9146 2.94006 13.9346 2.97339C13.9479 2.99329 13.9682 3.01306 13.9814 3.03296C14.3346 3.5061 14.5813 3.82616 14.708 4.21265C14.8347 4.59931 14.834 5.00684 14.834 5.59351V9.03979C14.834 10.2663 14.8343 11.233 14.7344 11.9929C14.6277 12.7729 14.4072 13.406 13.9072 13.906C13.4072 14.406 12.7741 14.6265 11.9941 14.7332C11.2342 14.8331 10.2676 14.8328 9.04102 14.8328H6.96777C5.74128 14.8328 4.7746 14.8331 4.01465 14.7332C3.23465 14.6265 2.60059 14.406 2.10059 13.906C1.60089 13.4061 1.38105 12.7727 1.27441 11.9929C1.16777 11.2329 1.16797 10.2597 1.16797 9.03979V5.59351C1.16797 5.00684 1.16728 4.59931 1.29395 4.21265C1.42063 3.82616 1.66732 3.49943 2.02051 3.03296C2.03377 3.01306 2.05405 2.99329 2.06738 2.97339C2.08738 2.94006 2.11477 2.91297 2.13477 2.87964C2.6613 2.17981 3.02126 1.69331 3.54785 1.43335C4.08117 1.16671 4.68139 1.16675 5.55469 1.16675H10.4541ZM2.1875 4.83276C2.1675 5.01276 2.16797 5.26008 2.16797 5.66675V8.99976C2.16797 10.2731 2.16741 11.1734 2.26074 11.8601C2.34742 12.5332 2.52084 12.92 2.80078 13.2C3.08073 13.4799 3.4675 13.6466 4.14063 13.74C4.82729 13.8333 5.72765 13.8328 7.00098 13.8328H9.00098C10.2743 13.8328 11.1747 13.8333 11.8613 13.74C12.5345 13.6533 12.9212 13.4799 13.2012 13.2C13.4811 12.92 13.6479 12.5333 13.7412 11.8601C13.8345 11.1734 13.834 10.2731 13.834 8.99976V5.66675C13.834 5.26008 13.8278 5.01276 13.8145 4.83276H10.1611V5.69995C10.1611 5.98656 10.1614 6.25326 10.1348 6.46655C10.1014 6.70651 10.0279 6.95327 9.82129 7.15991C9.61469 7.36651 9.36786 7.44004 9.12793 7.47339C8.91468 7.50005 8.64787 7.49976 8.36133 7.49976H7.63477C7.3481 7.49976 7.08052 7.50006 6.86719 7.47339C6.62744 7.44004 6.38129 7.36623 6.1748 7.15991C5.96818 6.95328 5.89467 6.70651 5.86133 6.46655C5.83467 6.25326 5.83398 5.98656 5.83398 5.69995V4.83276H2.1875ZM7.03418 9.16675C7.32075 9.16675 7.58748 9.16648 7.80078 9.19312C8.04077 9.22645 8.28748 9.29995 8.49414 9.50659C8.70081 9.71326 8.77428 9.95995 8.80762 10.2C8.83427 10.4133 8.83398 10.68 8.83398 10.9666V11.0261C8.83398 11.3126 8.83423 11.5795 8.80762 11.7927C8.77429 12.0327 8.70073 12.2794 8.49414 12.4861C8.28747 12.6928 8.04078 12.7662 7.80078 12.7996C7.58748 12.8262 7.32077 12.8269 7.03418 12.8269H4.97461C4.68808 12.8269 4.42129 12.8262 4.20801 12.7996C3.96801 12.7662 3.72131 12.6928 3.51465 12.4861C3.30801 12.2794 3.2345 12.0327 3.20117 11.7927C3.17455 11.5795 3.1748 11.3126 3.1748 11.0261V10.9666C3.1748 10.6799 3.17452 10.4133 3.20117 10.2C3.23451 9.95995 3.30798 9.71326 3.51465 9.50659C3.7213 9.3 3.96805 9.22644 4.20801 9.19312C4.42128 9.16649 4.6881 9.16675 4.97461 9.16675H7.03418ZM5.00781 10.1667C4.68115 10.1667 4.48082 10.1663 4.34082 10.1863C4.27431 10.1929 4.24752 10.206 4.22754 10.2126H4.2207C4.2207 10.2126 4.2207 10.2131 4.2207 10.2195C4.2207 10.2328 4.20765 10.2663 4.19434 10.3328C4.17434 10.4728 4.1748 10.6664 4.1748 10.9998C4.1748 11.3331 4.17434 11.5267 4.19434 11.6667C4.20101 11.7332 4.21405 11.7667 4.2207 11.78V11.7869H4.22754C4.24086 11.7869 4.27425 11.7999 4.34082 11.8132C4.48082 11.8332 4.67448 11.8328 5.00781 11.8328H7.00781C7.33439 11.8328 7.53483 11.8332 7.6748 11.8132C7.74113 11.8066 7.76813 11.7935 7.78809 11.7869H7.79395C7.79395 11.7869 7.79395 11.7865 7.79395 11.78C7.79395 11.7667 7.80797 11.7333 7.82129 11.6667C7.84129 11.5267 7.84082 11.3264 7.84082 10.9998C7.84082 10.6731 7.84129 10.4728 7.82129 10.3328C7.81461 10.2663 7.8006 10.2328 7.79395 10.2195V10.2126H7.78809C7.77478 10.2126 7.74119 10.1996 7.6748 10.1863C7.53483 10.1663 7.34105 10.1667 7.00781 10.1667H5.00781ZM6.83398 4.83276V5.66675C6.83398 5.99298 6.83455 6.19282 6.85449 6.33276C6.86769 6.39874 6.88059 6.43244 6.88086 6.44604V6.45288H6.8877C6.9077 6.45955 6.93431 6.47356 7.00098 6.48022C7.14097 6.50022 7.34133 6.49976 7.66797 6.49976H8.33398C8.66725 6.49976 8.86098 6.50021 9.00098 6.48022C9.06753 6.46691 9.10088 6.45293 9.11426 6.45288H9.12109V6.44604C9.1278 6.42609 9.14084 6.39898 9.14746 6.33276C9.16741 6.19282 9.16797 5.99299 9.16797 5.66675V4.83276H6.83398ZM5.66113 2.16675C4.6278 2.16675 4.28064 2.18024 3.9873 2.3269C3.69424 2.4736 3.47414 2.74021 2.86133 3.56616C2.78809 3.66604 2.72107 3.75285 2.66113 3.83276H5.94141L6.35449 2.16675H5.66113ZM10.0547 3.83276H13.334C13.2741 3.75288 13.208 3.66599 13.1348 3.56616C12.515 2.73978 12.2943 2.4736 12.0078 2.3269C11.7145 2.18024 11.3673 2.16675 10.334 2.16675H9.64063L10.0547 3.83276ZM6.98145 3.83276H9.02734L8.61426 2.16675H7.39453L6.98145 3.83276Z" fill="#161616"/>
</svg>
