<svg width="16" height="16" viewBox="0 0 16 16" fill="none" xmlns="http://www.w3.org/2000/svg">
<path fill-rule="evenodd" clip-rule="evenodd" d="M8.4379 2.28918C9.0619 2.49193 9.57543 2.92956 9.87643 3.5001L10.9043 3.5001C11.3684 3.5001 11.7534 3.50008 12.0706 3.53211C12.4046 3.56584 12.7037 3.63802 12.986 3.80665C13.2684 3.97528 13.4737 4.20441 13.6618 4.48251C13.8148 4.70884 13.9708 4.99029 14.1508 5.32338L14.2429 5.49422L15.1018 7.08924C15.1218 7.1249 15.1375 7.1633 15.1484 7.2037C15.1608 7.2497 15.1663 7.2965 15.1655 7.34284V8.7027C15.1655 9.45784 15.1655 10.075 15.0999 10.5622C15.0314 11.0715 14.8832 11.5131 14.5308 11.8656C14.154 12.2422 13.6729 12.3876 13.11 12.4492C12.9097 13.2446 12.1896 13.8334 11.332 13.8334C10.4928 13.8334 9.78537 13.2696 9.5677 12.5002H6.4297C6.21202 13.2696 5.50453 13.8334 4.66536 13.8334C3.80777 13.8334 3.08771 13.2446 2.88743 12.4492C2.32452 12.3876 1.84334 12.2422 1.46663 11.8656C0.999391 11.3983 0.888171 10.7703 0.851018 10.025C0.837271 9.74924 1.0497 9.5145 1.3255 9.50077C1.6013 9.48704 1.83603 9.69944 1.84978 9.97524C1.88552 10.6923 1.99182 10.9765 2.17374 11.1584C2.31276 11.2974 2.51152 11.3923 2.91748 11.4453C3.15259 10.704 3.84624 10.1668 4.66536 10.1668C5.50456 10.1668 6.21207 10.7306 6.4297 11.5002H9.5677C9.7853 10.7306 10.4928 10.1668 11.332 10.1668C12.1512 10.1668 12.8448 10.704 13.0799 11.4453C13.4859 11.3923 13.6846 11.2974 13.8236 11.1584C13.9594 11.0228 14.0552 10.8274 14.1088 10.429C14.1643 10.0162 14.1654 9.46664 14.1654 8.66684V7.8335L11.4538 7.8335C11.0346 7.83384 10.7102 7.8341 10.4322 7.74377C9.87403 7.56244 9.43643 7.12484 9.2551 6.56668C9.16476 6.28859 9.16496 5.9642 9.1653 5.54501L9.16537 5.46682C9.16537 4.68339 9.15917 4.41026 9.09196 4.20329C8.94357 3.74664 8.58557 3.38861 8.1289 3.24023C7.9495 3.18195 7.72042 3.16955 7.15256 3.16728L1.33203 3.16682C1.05589 3.16682 0.832031 2.94296 0.832031 2.66682C0.832031 2.39068 1.05589 2.16677 1.33203 2.16677L6.95803 2.16677C7.6127 2.16654 8.0599 2.16636 8.4379 2.28918ZM4.66536 11.1668C4.20512 11.1668 3.83203 11.5398 3.83203 12.0001C3.83203 12.4604 4.20512 12.8334 4.66536 12.8334C5.1256 12.8334 5.4987 12.4604 5.4987 12.0001C5.4987 11.5398 5.1256 11.1668 4.66536 11.1668ZM11.332 11.1668C10.8718 11.1668 10.4987 11.5398 10.4987 12.0001C10.4987 12.4604 10.8718 12.8334 11.332 12.8334C11.7923 12.8334 12.1654 12.4604 12.1654 12.0001C12.1654 11.5398 11.7923 11.1668 11.332 11.1668ZM11.1867 4.50047L10.1483 4.5001C10.1656 4.74816 10.1655 5.03298 10.1654 5.37414L10.1659 5.68769C10.1679 6.04693 10.1769 6.16751 10.2062 6.25766C10.2886 6.51136 10.4875 6.71024 10.7412 6.7927C10.8477 6.8273 10.9968 6.8335 11.532 6.8335L13.8283 6.8335L13.3742 5.99016C13.1394 5.55423 12.9804 5.26 12.8334 5.04267C12.6928 4.83468 12.5857 4.73234 12.4732 4.66517C12.3608 4.59799 12.22 4.55228 11.9702 4.52705C11.7671 4.50655 11.5197 4.50164 11.1867 4.50047ZM1.33203 4.83344C1.05589 4.83344 0.832031 5.0573 0.832031 5.33344C0.832031 5.60958 1.05589 5.83344 1.33203 5.83344L5.33203 5.83344C5.60817 5.83344 5.83203 5.60958 5.83203 5.33344C5.83203 5.0573 5.60817 4.83344 5.33203 4.83344L1.33203 4.83344ZM0.832031 7.33344C0.832031 7.0573 1.05589 6.83344 1.33203 6.83344L3.9987 6.83344C4.27484 6.83344 4.4987 7.0573 4.4987 7.33344C4.4987 7.60957 4.27484 7.83344 3.9987 7.83344L1.33203 7.83344C1.05589 7.83344 0.832031 7.60957 0.832031 7.33344Z" fill="#161616"/>
</svg>
