<svg width="16" height="16" viewBox="0 0 16 16" fill="none" xmlns="http://www.w3.org/2000/svg">
<path d="M8 5.5C8.27614 5.5 8.5 5.72386 8.5 6V8.79297L9.31348 7.97949C9.50876 7.78456 9.82535 7.78434 10.0205 7.97949C10.2157 8.17465 10.2154 8.49124 10.0205 8.68652L8.5 10.207V14.167H9.33301C9.60915 14.167 9.83301 14.3908 9.83301 14.667C9.83283 14.943 9.60904 15.167 9.33301 15.167H6.66699C6.39096 15.167 6.16717 14.943 6.16699 14.667C6.16699 14.3908 6.39085 14.167 6.66699 14.167H7.5V8.87402L5.97949 7.35352C5.78445 7.15829 5.78445 6.84171 5.97949 6.64648C6.1747 6.45128 6.49125 6.45139 6.68652 6.64648L7.5 7.45996V6C7.5 5.72386 7.72386 5.5 8 5.5ZM8 0.833008C10.159 0.833008 11.6366 2.42398 11.8145 4.3418C13.3707 4.82974 14.5 6.28246 14.5 8C14.5 10.117 12.7839 11.8328 10.667 11.833H10C9.72386 11.833 9.5 11.6091 9.5 11.333C9.50018 11.057 9.72397 10.833 10 10.833H10.667C12.2316 10.8328 13.5 9.5647 13.5 8C13.5 6.6297 12.5267 5.48596 11.2334 5.22363C11.0004 5.17638 10.8331 4.97116 10.833 4.7334C10.833 3.13942 9.69556 1.83301 8 1.83301C6.30444 1.83301 5.16699 3.13942 5.16699 4.7334C5.16691 4.97116 4.99964 5.17638 4.7666 5.22363C3.47335 5.48596 2.5 6.6297 2.5 8C2.5 9.5647 3.76835 10.8328 5.33301 10.833H6C6.27603 10.833 6.49982 11.057 6.5 11.333C6.5 11.6091 6.27614 11.833 6 11.833H5.33301C3.21607 11.8328 1.5 10.117 1.5 8C1.5 6.28246 2.62931 4.82974 4.18555 4.3418C4.36343 2.42398 5.84097 0.833008 8 0.833008Z" fill="#161616"/>
</svg>
