<svg width="16" height="16" viewBox="0 0 16 16" fill="none" xmlns="http://www.w3.org/2000/svg">
<path d="M9.31543 1.5C9.82874 1.49999 10.25 1.50012 10.5967 1.53418C10.9598 1.56987 11.28 1.64595 11.583 1.82031C11.886 1.9947 12.1122 2.23347 12.3252 2.5293C12.5285 2.81172 12.7399 3.17586 12.9971 3.61914L14.3047 5.87207C14.5628 6.31692 14.7743 6.68232 14.9189 7C15.0705 7.33293 15.166 7.64915 15.166 8C15.166 8.35085 15.0705 8.66707 14.9189 9C14.7743 9.31768 14.5628 9.68308 14.3047 10.1279L12.9971 12.3818C12.74 12.8249 12.5284 13.1884 12.3252 13.4707C12.1122 13.7665 11.886 14.0053 11.583 14.1797C11.28 14.354 10.9598 14.4301 10.5967 14.4658C10.25 14.4999 9.82874 14.5 9.31543 14.5H6.68262C6.1693 14.5 5.74801 14.4999 5.40137 14.4658C5.03828 14.4301 4.71809 14.354 4.41504 14.1797C4.11202 14.0053 3.88582 13.7665 3.67285 13.4707C3.46956 13.1883 3.25815 12.8242 3.00098 12.3809L1.69336 10.1279C1.43527 9.68308 1.22372 9.31768 1.0791 9C0.927566 8.66707 0.832031 8.35085 0.832031 8C0.832031 7.64915 0.927566 7.33293 1.0791 7C1.22372 6.68232 1.43527 6.31692 1.69336 5.87207L3.00098 3.61914C3.25814 3.17586 3.46957 2.81172 3.67285 2.5293C3.88582 2.23347 4.11202 1.9947 4.41504 1.82031C4.71809 1.64595 5.03828 1.56987 5.40137 1.53418C5.74801 1.50012 6.1693 1.49999 6.68262 1.5H9.31543ZM6.70703 2.5C6.16329 2.5 5.79107 2.5006 5.49902 2.5293C5.21811 2.55692 5.05113 2.60773 4.91406 2.68652C4.77696 2.7654 4.64912 2.88444 4.48438 3.11328C4.31321 3.35106 4.12605 3.67185 3.85352 4.1416L2.57129 6.35254C2.2978 6.82394 2.11104 7.14658 1.98926 7.41406C1.87203 7.67161 1.83203 7.84194 1.83203 8C1.83203 8.15806 1.87203 8.32839 1.98926 8.58594C2.11104 8.85342 2.2978 9.17606 2.57129 9.64746L3.85352 11.8584C4.12605 12.3281 4.31321 12.6489 4.48438 12.8867C4.64912 13.1156 4.77696 13.2346 4.91406 13.3135C5.05113 13.3923 5.21811 13.4431 5.49902 13.4707C5.79107 13.4994 6.16329 13.5 6.70703 13.5H9.29102C9.83475 13.5 10.207 13.4994 10.499 13.4707C10.7799 13.4431 10.9469 13.3923 11.084 13.3135C11.2211 13.2346 11.3489 13.1156 11.5137 12.8867C11.6848 12.6489 11.872 12.3282 12.1445 11.8584L13.4268 9.64746C13.7002 9.17606 13.887 8.85342 14.0088 8.58594C14.126 8.32839 14.166 8.15806 14.166 8C14.166 7.84194 14.126 7.67161 14.0088 7.41406C13.887 7.14658 13.7002 6.82394 13.4268 6.35254L12.1445 4.1416C11.872 3.67185 11.6848 3.35106 11.5137 3.11328C11.3489 2.88444 11.2211 2.7654 11.084 2.68652C10.9469 2.60773 10.7799 2.55692 10.499 2.5293C10.207 2.5006 9.83475 2.5 9.29102 2.5H6.70703ZM7.99902 5.16699C9.56383 5.16699 10.832 6.43519 10.832 8C10.832 9.56481 9.56383 10.833 7.99902 10.833C6.43422 10.833 5.16602 9.56481 5.16602 8C5.16602 6.43519 6.43422 5.16699 7.99902 5.16699ZM7.99902 6.16699C6.9865 6.16699 6.16602 6.98748 6.16602 8C6.16602 9.01252 6.9865 9.83301 7.99902 9.83301C9.01155 9.83301 9.83203 9.01252 9.83203 8C9.83203 6.98748 9.01155 6.16699 7.99902 6.16699Z" fill="#161616"/>
</svg>
