<svg width="16" height="16" viewBox="0 0 16 16" fill="none" xmlns="http://www.w3.org/2000/svg">
<path fill-rule="evenodd" clip-rule="evenodd" d="M11.4208 1.16675C11.7781 1.16675 12.0968 1.37942 12.2334 1.70809C12.3701 2.03742 12.2948 2.41407 12.0414 2.6674L10.2354 4.48009C10.1067 4.60876 10.0361 4.77811 10.0361 4.95744C10.0361 5.13677 10.1067 5.30607 10.2347 5.43407C10.3627 5.56207 10.5321 5.63276 10.7114 5.63276C10.8908 5.63276 11.06 5.56207 11.188 5.43407L13.002 3.62677C13.2547 3.37411 13.6314 3.29877 13.9608 3.43543C14.2894 3.57143 14.5021 3.89073 14.5021 4.24806L14.5021 5.28828C14.499 7.9316 14.4401 8.41738 13.5954 9.26142C12.7208 10.1361 11.3047 10.1681 9.18538 10.1681L8.87451 10.1667L4.90737 14.1339C4.4547 14.5865 3.85538 14.8353 3.21805 14.8353C2.57671 14.8332 1.98004 14.5833 1.53204 14.1319C1.08338 13.6873 0.833375 13.0906 0.832037 12.4546C0.830709 11.8153 1.07941 11.2133 1.53341 10.7599L5.50076 6.79255V6.73475C5.49942 4.47471 5.49873 2.98205 6.40738 2.07339C7.24854 1.23222 7.7333 1.17204 10.348 1.16721L11.4208 1.16675ZM5.67404 8.03388L2.2407 11.4672C1.9767 11.7312 1.83138 12.0812 1.83204 12.4525C1.83271 12.8205 1.97742 13.1659 2.23875 13.4252C2.50142 13.6899 2.84673 13.8346 3.21473 13.8353C3.58805 13.8353 3.93674 13.6906 4.20008 13.4266L7.63331 9.99335C6.71758 9.67608 5.99123 8.94962 5.67404 8.03388ZM11.1274 2.1674L10.4212 2.16702C7.83032 2.17109 7.6665 2.22772 7.11411 2.78075C6.49898 3.39585 6.49944 4.72307 6.50007 6.73181L6.50018 7.01921C6.51051 8.20515 7.47851 9.16675 8.66678 9.16675H8.95218C10.9526 9.16675 12.2728 9.16675 12.8861 8.55341C13.4781 7.96141 13.5008 7.81541 13.5001 4.65542V4.54005L11.8928 6.14142C11.5768 6.45742 11.156 6.63211 10.71 6.63211C10.264 6.63211 9.84338 6.45744 9.52671 6.14077C9.21004 5.82411 9.03538 5.40344 9.03538 4.95744C9.03538 4.51144 9.21004 4.09077 9.52671 3.77411L11.1274 2.1674ZM3.33399 13.0001H3.34063C3.70863 13.0001 4.00398 12.7014 4.00398 12.3334C4.00398 11.9654 3.70199 11.6667 3.33399 11.6667C2.96599 11.6667 2.66732 11.9654 2.66732 12.3334C2.66732 12.7014 2.96599 13.0001 3.33399 13.0001Z" fill="#161616"/>
</svg>
