<svg width="16" height="16" viewBox="0 0 16 16" fill="none" xmlns="http://www.w3.org/2000/svg">
<path d="M5.12746 9.64844C6.88595 8.56109 9.11701 8.56113 10.8755 9.64844C10.9273 9.68046 10.9925 9.71958 11.0679 9.76367C11.4093 9.96347 11.9519 10.2803 12.3218 10.6562C12.5541 10.8924 12.7864 11.2148 12.8286 11.6162C12.8738 12.0456 12.691 12.4431 12.3433 12.7871C11.7689 13.3554 11.0574 13.833 10.1245 13.833H5.87844C4.9456 13.8329 4.23405 13.3554 3.65969 12.7871C3.312 12.4431 3.13013 12.0456 3.17531 11.6162C3.21756 11.2148 3.44882 10.8924 3.68117 10.6562C4.05111 10.2803 4.59359 9.96349 4.93508 9.76367C5.01046 9.71956 5.07564 9.68048 5.12746 9.64844ZM10.3491 10.499C8.91305 9.61123 7.08989 9.61115 5.65383 10.499C5.56761 10.5523 5.4748 10.6068 5.37941 10.6631C5.03826 10.8642 4.65951 11.0877 4.39406 11.3574C4.2308 11.5234 4.17746 11.645 4.16945 11.7207C4.16444 11.7684 4.16675 11.8821 4.36281 12.0762C4.85109 12.5593 5.32338 12.8329 5.87844 12.833H10.1245C10.6797 12.833 11.1518 12.5593 11.6402 12.0762C11.8364 11.8821 11.8385 11.7684 11.8335 11.7207C11.8255 11.645 11.7722 11.5234 11.6089 11.3574C11.3434 11.0877 10.9647 10.8642 10.6236 10.6631C10.5282 10.6069 10.4353 10.5523 10.3491 10.499ZM3.28957 8.16895C3.56459 8.14406 3.80766 8.34705 3.83254 8.62207C3.85716 8.89678 3.65506 9.13996 3.38039 9.16504C2.95352 9.20366 2.52299 9.36782 2.12941 9.6709C2.06601 9.71972 2.00047 9.7686 1.9341 9.81738C1.70772 9.98377 1.47427 10.1549 1.30813 10.3652C1.20964 10.49 1.17505 10.5842 1.16945 10.6504C1.16522 10.7009 1.17224 10.7896 1.28664 10.9307C1.61677 11.3374 1.88564 11.4999 2.15188 11.5C2.42802 11.5 2.65188 11.7239 2.65188 12C2.65188 12.2761 2.42802 12.5 2.15188 12.5C1.41939 12.4999 0.893443 12.0336 0.510274 11.5615C0.26002 11.2532 0.14309 10.9146 0.172383 10.5664C0.200498 10.2338 0.356957 9.9565 0.523946 9.74512C0.785285 9.41435 1.17282 9.13201 1.39992 8.9668C1.44775 8.932 1.48914 8.9027 1.52004 8.87891C2.05608 8.4662 2.6641 8.22559 3.28957 8.16895ZM12.7134 8.16895C13.339 8.22558 13.9478 8.46605 14.4839 8.87891C14.5148 8.90266 14.5554 8.93212 14.603 8.9668C14.8301 9.132 15.2177 9.41437 15.479 9.74512C15.646 9.9565 15.8025 10.2338 15.8306 10.5664C15.8599 10.9146 15.743 11.2532 15.4927 11.5615C15.1095 12.0336 14.5836 12.4999 13.8511 12.5C13.575 12.5 13.3511 12.2761 13.3511 12C13.3511 11.7239 13.575 11.5 13.8511 11.5C14.1174 11.4999 14.3862 11.3375 14.7163 10.9307C14.8308 10.7896 14.8377 10.7009 14.8335 10.6504C14.8279 10.5842 14.7934 10.49 14.6948 10.3652C14.5287 10.1549 14.2953 9.98379 14.0689 9.81738C14.0025 9.76859 13.937 9.71973 13.8736 9.6709C13.4801 9.36795 13.0503 9.20373 12.6236 9.16504C12.3487 9.14017 12.1458 8.89691 12.1704 8.62207C12.1953 8.34705 12.4384 8.14406 12.7134 8.16895ZM3.66848 3.5C3.9445 3.50014 4.16848 3.72394 4.16848 4C4.16848 4.27606 3.9445 4.49986 3.66848 4.5C3.02414 4.5 2.50148 5.02266 2.50148 5.66699C2.50166 6.31117 3.02425 6.83301 3.66848 6.83301C3.94439 6.83315 4.1683 7.0571 4.16848 7.33301C4.16848 7.60906 3.9445 7.83287 3.66848 7.83301C2.47197 7.83301 1.50166 6.86346 1.50148 5.66699C1.50148 4.47038 2.47186 3.5 3.66848 3.5ZM8.00148 2.16699C9.56629 2.16699 10.8345 3.43519 10.8345 5C10.8345 6.56481 9.56629 7.83301 8.00148 7.83301C6.4367 7.83299 5.16848 6.56479 5.16848 5C5.16848 3.43521 6.4367 2.16701 8.00148 2.16699ZM12.0015 3.5C13.1981 3.5 14.1685 4.47038 14.1685 5.66699C14.1683 6.86346 13.198 7.83301 12.0015 7.83301C11.7254 7.83299 11.5015 7.60914 11.5015 7.33301C11.5017 7.05703 11.7255 6.83303 12.0015 6.83301C12.6457 6.83301 13.1683 6.31117 13.1685 5.66699C13.1685 5.02266 12.6458 4.5 12.0015 4.5C11.7254 4.49998 11.5015 4.27613 11.5015 4C11.5015 3.72387 11.7254 3.50002 12.0015 3.5ZM8.00148 3.16699C6.98898 3.16701 6.16848 3.98749 6.16848 5C6.16848 6.01251 6.98898 6.83299 8.00148 6.83301C9.01401 6.83301 9.83449 6.01252 9.83449 5C9.83449 3.98748 9.01401 3.16699 8.00148 3.16699Z" fill="#161616"/>
</svg>
