<svg width="16" height="16" viewBox="0 0 16 16" fill="none" xmlns="http://www.w3.org/2000/svg">
<path d="M9.03027 2.16699C10.2562 2.16699 11.2195 2.16623 11.9785 2.25195C12.7533 2.33947 13.382 2.52213 13.9043 2.93457C14.0606 3.05803 14.2051 3.19497 14.3369 3.34277C14.781 3.8409 14.9798 4.44481 15.0742 5.18555C15.1659 5.90511 15.166 6.81569 15.166 7.96484V8.03516C15.166 9.18431 15.1659 10.0949 15.0742 10.8145C14.9798 11.5552 14.781 12.1591 14.3369 12.6572C14.2051 12.805 14.0606 12.942 13.9043 13.0654C13.382 13.4779 12.7533 13.6605 11.9785 13.748C11.2195 13.8338 10.2562 13.833 9.03027 13.833H6.96777C5.74186 13.833 4.77856 13.8338 4.01953 13.748C3.24475 13.6605 2.616 13.4779 2.09375 13.0654C1.93744 12.942 1.79291 12.805 1.66113 12.6572C1.21706 12.1591 1.01829 11.5552 0.923828 10.8145C0.832105 10.0949 0.832022 9.18432 0.832031 8.03516V7.96484C0.832022 6.81569 0.832105 5.90511 0.923828 5.18555C1.01829 4.44482 1.21706 3.8409 1.66113 3.34277C1.79291 3.19497 1.93744 3.05803 2.09375 2.93457C2.616 2.52213 3.24475 2.33947 4.01953 2.25195C4.77857 2.16623 5.74186 2.16699 6.96777 2.16699H9.03027ZM6.99902 3.16699C5.73453 3.16699 4.8282 3.16745 4.13184 3.24609C3.44464 3.32372 3.02807 3.47159 2.71387 3.71973C2.60266 3.80755 2.49993 3.90383 2.40723 4.00781C2.1495 4.29689 1.99702 4.67644 1.91602 5.31152C1.83325 5.96056 1.83203 6.80762 1.83203 8C1.83203 9.19238 1.83325 10.0394 1.91602 10.6885C1.99702 11.3236 2.1495 11.7031 2.40723 11.9922C2.49993 12.0962 2.60266 12.1924 2.71387 12.2803C3.02807 12.5284 3.44464 12.6763 4.13184 12.7539C4.8282 12.8326 5.73453 12.833 6.99902 12.833H8.99902C10.2635 12.833 11.1698 12.8326 11.8662 12.7539C12.5534 12.6763 12.97 12.5284 13.2842 12.2803C13.3954 12.1924 13.4981 12.0962 13.5908 11.9922C13.8485 11.7031 14.001 11.3236 14.082 10.6885C14.1648 10.0394 14.166 9.19238 14.166 8C14.166 6.80762 14.1648 5.96056 14.082 5.31152C14.001 4.67644 13.8485 4.29689 13.5908 4.00781C13.4981 3.90383 13.3954 3.80756 13.2842 3.71973C12.97 3.47159 12.5534 3.32372 11.8662 3.24609C11.1698 3.16745 10.2635 3.16699 8.99902 3.16699H6.99902ZM8.0332 5.83301C9.22973 5.83311 10.1992 6.80345 10.1992 8C10.1992 9.19655 9.22973 10.1669 8.0332 10.167C6.83659 10.167 5.86621 9.19662 5.86621 8C5.86621 6.80338 6.83659 5.83301 8.0332 5.83301ZM8.0332 6.83301C7.38887 6.83301 6.86621 7.35567 6.86621 8C6.86621 8.64433 7.38887 9.16699 8.0332 9.16699C8.67745 9.16689 9.19922 8.64427 9.19922 8C9.19922 7.35573 8.67745 6.83311 8.0332 6.83301ZM3.99902 7.5C4.27517 7.5 4.49902 7.72386 4.49902 8C4.49902 8.27614 4.27517 8.5 3.99902 8.5H3.33203C3.05604 8.49982 2.83203 8.27603 2.83203 8C2.83203 7.72397 3.05604 7.50018 3.33203 7.5H3.99902ZM12.666 7.5C12.942 7.50018 13.166 7.72397 13.166 8C13.166 8.27603 12.942 8.49982 12.666 8.5H11.999C11.7229 8.5 11.499 8.27614 11.499 8C11.499 7.72386 11.7229 7.5 11.999 7.5H12.666Z" fill="#161616"/>
</svg>
