<svg width="16" height="16" viewBox="0 0 16 16" fill="none" xmlns="http://www.w3.org/2000/svg">
<path d="M11.627 4C11.8111 3.79429 12.1272 3.77693 12.333 3.96094C13.6518 5.14132 14.5 6.72924 14.5 8.66699C14.4998 12.2567 11.5897 15.167 8 15.167C4.41027 15.167 1.50019 12.2567 1.5 8.66699C1.5 6.72924 2.34816 5.14132 3.66699 3.96094C3.87276 3.77693 4.18893 3.79429 4.37305 4C4.55692 4.20577 4.53867 4.52198 4.33301 4.70605C3.19703 5.72291 2.5 7.0509 2.5 8.66699C2.50019 11.7044 4.96255 14.167 8 14.167C11.0374 14.167 13.4998 11.7044 13.5 8.66699C13.5 7.0509 12.803 5.72291 11.667 4.70605C11.4613 4.52198 11.4431 4.20577 11.627 4ZM8 0.833008C8.17201 0.833008 8.32013 0.892655 8.42773 0.950195C8.53933 1.00991 8.64332 1.08763 8.73535 1.16602C8.91887 1.32234 9.10256 1.52322 9.2666 1.7168C9.41975 1.89754 9.5686 2.0876 9.69531 2.24902C9.70576 2.26234 9.71642 2.27517 9.72656 2.28809C9.86869 2.46904 9.96626 2.59053 10.0254 2.65137C10.2177 2.84928 10.2133 3.16591 10.0156 3.3584C9.81771 3.55077 9.50109 3.54635 9.30859 3.34863C9.20389 3.24091 9.06858 3.0694 8.94043 2.90625C8.93055 2.89367 8.92015 2.88089 8.91016 2.86816C8.78161 2.70443 8.64428 2.52895 8.50391 2.36328C8.50261 2.36175 8.50129 2.35992 8.5 2.3584V7.33301C8.5 7.60915 8.27614 7.83301 8 7.83301C7.72386 7.83301 7.5 7.60915 7.5 7.33301V2.3584C7.49871 2.35992 7.49739 2.36175 7.49609 2.36328C7.35572 2.52895 7.21839 2.70443 7.08984 2.86816C7.07985 2.88089 7.06945 2.89367 7.05957 2.90625C6.93142 3.0694 6.79611 3.24091 6.69141 3.34863C6.49891 3.54635 6.18229 3.55077 5.98438 3.3584C5.78667 3.16591 5.78226 2.84928 5.97461 2.65137C6.03374 2.59053 6.13131 2.46904 6.27344 2.28809C6.28358 2.27517 6.29424 2.26234 6.30469 2.24902C6.4314 2.08759 6.58024 1.89755 6.7334 1.7168C6.89744 1.52322 7.08113 1.32234 7.26465 1.16602C7.35668 1.08763 7.46067 1.00991 7.57227 0.950195C7.67987 0.892655 7.82799 0.833008 8 0.833008Z" fill="#161616"/>
</svg>
