<svg width="16" height="16" viewBox="0 0 16 16" fill="none" xmlns="http://www.w3.org/2000/svg">
<path d="M13.666 8.83301C14.4955 8.83319 15.1658 9.53938 15.166 10.333C15.166 10.951 14.9769 11.4461 14.6182 11.8076C14.2721 12.1562 13.8171 12.3307 13.376 12.4219C12.933 12.5134 12.4574 12.5297 12.0244 12.5264C11.8112 12.5247 11.601 12.5188 11.4072 12.5127L11.3936 12.5117C11.2778 12.5081 11.1685 12.5051 11.0654 12.5029C10.3609 13.2339 9.41583 13.833 7.99902 13.833C6.58222 13.833 5.63712 13.2339 4.93262 12.5029C4.82953 12.5051 4.72026 12.5081 4.60449 12.5117L4.59082 12.5127C4.39703 12.5188 4.18687 12.5247 3.97363 12.5264C3.54067 12.5297 3.065 12.5134 2.62207 12.4219C2.1809 12.3307 1.72594 12.1562 1.37988 11.8076C1.02113 11.4461 0.832031 10.951 0.832031 10.333C0.832214 9.53938 1.50256 8.83319 2.33203 8.83301C2.58517 8.83301 2.82097 8.88162 3.03906 8.96875C3.13146 9.00569 3.21974 9.04908 3.30371 9.09766C4.15208 9.5113 5.66504 10.167 7.99902 10.167C10.333 10.167 11.846 9.5113 12.6943 9.09766C12.7783 9.04908 12.8666 9.00569 12.959 8.96875C13.1771 8.88162 13.4129 8.83301 13.666 8.83301ZM11.1885 10.7461C10.3354 10.9845 9.2778 11.167 7.99902 11.167C6.72025 11.167 5.66262 10.9845 4.80957 10.7461C5.03535 11.0642 5.25983 11.3744 5.52148 11.667C6.1147 12.3302 6.84113 12.833 7.99902 12.833C9.15691 12.833 9.88335 12.3302 10.4766 11.667C10.7382 11.3744 10.9627 11.0642 11.1885 10.7461ZM2.33203 9.83301C2.06882 9.83321 1.83223 10.0776 1.83203 10.333C1.83203 10.7358 1.94862 10.9602 2.08984 11.1025C2.24372 11.2576 2.48397 11.3721 2.82422 11.4424C3.1627 11.5123 3.55507 11.5295 3.9668 11.5264C4.02344 11.5259 4.08039 11.5255 4.13672 11.5244C4.05646 11.4135 3.97869 11.3043 3.9043 11.1992C3.82876 11.0925 3.75642 10.9898 3.68652 10.8936C3.36699 10.4538 3.10469 10.1476 2.82812 9.97852C2.76486 9.9475 2.70528 9.91793 2.65039 9.89062C2.55253 9.85375 2.44829 9.83301 2.33203 9.83301ZM13.666 9.83301C13.5498 9.83301 13.4455 9.85375 13.3477 9.89063C13.2928 9.91793 13.2332 9.9475 13.1699 9.97852C12.8934 10.1476 12.6311 10.4538 12.3115 10.8936C12.2416 10.9898 12.1693 11.0925 12.0937 11.1992C12.0194 11.3043 11.9416 11.4135 11.8613 11.5244C11.9177 11.5255 11.9746 11.5259 12.0312 11.5264C12.443 11.5295 12.8353 11.5123 13.1738 11.4424C13.5141 11.3721 13.7543 11.2576 13.9082 11.1025C14.0494 10.9602 14.166 10.7358 14.166 10.333C14.1658 10.0776 13.9292 9.83321 13.666 9.83301ZM9.62109 2.16699C9.97871 2.16705 10.3593 2.29185 10.6436 2.58887C11.4368 3.4179 11.8951 4.52495 12.1572 5.52051C12.4208 6.52141 12.499 7.4598 12.499 8C12.499 8.27614 12.2752 8.5 11.999 8.5C11.7229 8.5 11.499 8.27614 11.499 8C11.499 7.81274 11.4873 7.56199 11.458 7.26953C10.5842 7.56917 9.58684 7.83301 7.99902 7.83301C6.41061 7.83299 5.41309 7.56932 4.53906 7.26953C4.50975 7.56195 4.49902 7.81276 4.49902 8C4.49902 8.27614 4.27517 8.5 3.99902 8.5C3.72288 8.5 3.49902 8.27614 3.49902 8C3.49902 7.4598 3.5773 6.52141 3.84082 5.52051C4.10297 4.52495 4.56125 3.4179 5.35449 2.58887C5.63875 2.29186 6.01934 2.16705 6.37695 2.16699C6.739 2.16699 7.06379 2.35945 7.25 2.65723L7.38672 2.87695C7.53155 3.10848 7.76453 3.2334 7.99902 3.2334C8.23352 3.2334 8.4665 3.10848 8.61133 2.87695L8.74805 2.65723C8.93426 2.35945 9.25904 2.16699 9.62109 2.16699ZM9.61426 3.16895C9.61015 3.17131 9.60347 3.17675 9.59668 3.1875L9.45996 3.40625C9.14272 3.91384 8.59742 4.2334 7.99902 4.2334C7.40062 4.2334 6.85533 3.91384 6.53809 3.40625L6.40137 3.1875C6.39458 3.17675 6.38789 3.17131 6.38379 3.16895C6.37982 3.16668 6.37744 3.16699 6.37695 3.16699C6.24515 3.16705 6.14255 3.21194 6.07715 3.28027C5.44866 3.9371 5.04842 4.86078 4.80762 5.77539C4.76411 5.94065 4.72721 6.10421 4.69434 6.26367C5.5504 6.56635 6.4556 6.83299 7.99902 6.83301C9.54187 6.83301 10.447 6.5662 11.3027 6.26367C11.2699 6.10428 11.2339 5.94058 11.1904 5.77539C10.9496 4.86078 10.5494 3.9371 9.9209 3.28027C9.8555 3.21194 9.7529 3.16705 9.62109 3.16699C9.62061 3.16699 9.61822 3.16668 9.61426 3.16895Z" fill="#161616"/>
</svg>
