<svg width="16" height="16" viewBox="0 0 16 16" fill="none" xmlns="http://www.w3.org/2000/svg">
<path d="M9.81836 0.833008C10.655 0.833097 11.409 1.46475 11.4092 2.33301C11.4092 2.80898 11.1823 3.21375 10.8398 3.48242C11.8074 5.30239 12.5 6.96534 12.5 9.18457L12.5 12C12.5 13.0869 12.3919 13.9739 11.7861 14.5293C11.4827 14.8074 11.0974 14.9625 10.6592 15.0508C10.2244 15.1383 9.70215 15.167 9.09082 15.167L6.90918 15.167C6.29785 15.167 5.77562 15.1383 5.34082 15.0508C4.90257 14.9625 4.51726 14.8074 4.21387 14.5293C3.60808 13.9739 3.5 13.0869 3.5 12L3.5 9.18457C3.50003 6.96481 4.17706 5.29761 5.14551 3.47168C4.81114 3.20302 4.59082 2.80224 4.59082 2.33301C4.59101 1.46475 5.34502 0.833097 6.18164 0.833008L9.81836 0.833008ZM6.7627 8.84766C6.62299 8.69518 6.37002 8.61571 6.09766 8.67578C5.75516 8.75146 5.30639 8.79139 4.88574 8.76758C4.76195 8.76056 4.63627 8.7461 4.5127 8.72559C4.5055 8.87584 4.5 9.02865 4.5 9.18457L4.5 12C4.5 13.119 4.64279 13.5656 4.88965 13.792C5.01268 13.9048 5.20525 14.0033 5.53809 14.0703C5.87427 14.138 6.31745 14.167 6.90918 14.167L9.09082 14.167C9.68255 14.167 10.1257 14.138 10.4619 14.0703C10.7948 14.0033 10.9873 13.9048 11.1104 13.792C11.3572 13.5656 11.5 13.119 11.5 12V11.042C11.4769 11.0322 11.4521 11.0241 11.4277 11.0127C11.1308 10.8741 10.7473 10.6176 10.3047 10.1475C10.142 9.97487 9.92206 9.89708 9.72461 9.92871L9.02832 10.04C8.3942 10.1416 7.74496 9.92223 7.3125 9.44922L6.7627 8.84766ZM6.18164 1.83301C5.81372 1.83309 5.59102 2.09705 5.59082 2.33301C5.59082 2.51331 5.72088 2.71016 5.94629 2.79297C5.96264 2.79732 5.97904 2.8025 5.99512 2.80859C6.05214 2.82441 6.11445 2.83299 6.18164 2.83301C6.45767 2.83301 6.68146 3.05702 6.68164 3.33301C6.68164 3.60915 6.45778 3.83301 6.18164 3.83301C6.14998 3.833 6.1183 3.83284 6.08691 3.83105C5.36274 5.18545 4.8372 6.37214 4.61621 7.72656C4.71168 7.74579 4.82132 7.76267 4.94238 7.76953C5.27256 7.78822 5.62949 7.75497 5.88184 7.69922C6.43848 7.57632 7.07847 7.71095 7.50098 8.17285L8.05078 8.77441C8.25061 8.99297 8.56014 9.10238 8.87012 9.05273L9.56641 8.94043C10.134 8.84954 10.6749 9.08146 11.0332 9.46191C11.2095 9.6492 11.3666 9.78647 11.5 9.8877V9.18457C11.5 7.16222 10.8687 5.6533 9.89258 3.83203C9.86793 3.83313 9.84317 3.83301 9.81836 3.83301C9.54222 3.83301 9.31836 3.60915 9.31836 3.33301C9.31854 3.05702 9.54233 2.83301 9.81836 2.83301C9.8817 2.83299 9.94078 2.82567 9.99512 2.81152C10.0109 2.80586 10.027 2.80087 10.043 2.79688C10.2747 2.71635 10.4092 2.51605 10.4092 2.33301C10.409 2.09705 10.1863 1.83309 9.81836 1.83301L6.18164 1.83301Z" fill="#161616"/>
</svg>
